<svg width="37" height="37" viewBox="0 0 37 37" fill="none" xmlns="http://www.w3.org/2000/svg">
<g id="skill-icons:instagram">
<g id="Group">
<path id="Vector" d="M27.5625 0H8.4375C3.7776 0 0 3.7776 0 8.4375V27.5625C0 32.2224 3.7776 36 8.4375 36H27.5625C32.2224 36 36 32.2224 36 27.5625V8.4375C36 3.7776 32.2224 0 27.5625 0Z" fill="url(#paint0_radial_101_36)"/>
<path id="Vector_2" d="M27.5625 0H8.4375C3.7776 0 0 3.7776 0 8.4375V27.5625C0 32.2224 3.7776 36 8.4375 36H27.5625C32.2224 36 36 32.2224 36 27.5625V8.4375C36 3.7776 32.2224 0 27.5625 0Z" fill="url(#paint1_radial_101_36)"/>
<path id="Vector_3" d="M18.0013 3.93777C14.1822 3.93777 13.7028 3.95451 12.2029 4.02271C10.7058 4.09134 9.68386 4.32829 8.78977 4.67606C7.86473 5.03521 7.08019 5.51573 6.29859 6.2976C5.5163 7.07934 5.03578 7.86388 4.6755 8.78849C4.32675 9.68287 4.08952 10.7052 4.02216 12.2016C3.95508 13.7016 3.9375 14.1812 3.9375 18.0004C3.9375 21.8197 3.95438 22.2975 4.02244 23.7974C4.09134 25.2945 4.3283 26.3164 4.67578 27.2105C5.03522 28.1355 5.51573 28.9201 6.29761 29.7017C7.07906 30.484 7.86361 30.9656 8.78794 31.3248C9.68273 31.6725 10.7048 31.9095 12.2016 31.9781C13.7017 32.0463 14.1806 32.0631 17.9996 32.0631C21.8191 32.0631 22.2969 32.0463 23.7968 31.9781C25.2939 31.9095 26.317 31.6725 27.2118 31.3248C28.1364 30.9656 28.9198 30.484 29.7011 29.7017C30.4834 28.9201 30.9638 28.1355 31.3242 27.2109C31.6699 26.3164 31.9072 25.2942 31.9776 23.7977C32.0449 22.2978 32.0625 21.8197 32.0625 18.0004C32.0625 14.1812 32.0449 13.7019 31.9776 12.2019C31.9072 10.7048 31.6699 9.68301 31.3242 8.78892C30.9638 7.86388 30.4834 7.07934 29.7011 6.2976C28.919 5.51545 28.1367 5.03493 27.2109 4.6762C26.3145 4.32829 25.292 4.0912 23.7949 4.02271C22.2948 3.95451 21.8173 3.93777 17.9969 3.93777H18.0013ZM16.7397 6.47198C17.1142 6.47142 17.532 6.47198 18.0013 6.47198C21.7561 6.47198 22.201 6.48548 23.6838 6.55284C25.0549 6.61556 25.7991 6.84463 26.2948 7.03715C26.9511 7.29196 27.4189 7.5967 27.9108 8.08902C28.403 8.58121 28.7076 9.04991 28.9631 9.70621C29.1556 10.2012 29.385 10.9454 29.4474 12.3165C29.5148 13.799 29.5294 14.2442 29.5294 17.9972C29.5294 21.7502 29.5148 22.1955 29.4474 23.6779C29.3847 25.049 29.1556 25.7931 28.9631 26.2883C28.7083 26.9446 28.403 27.4119 27.9108 27.9038C27.4186 28.396 26.9513 28.7006 26.2948 28.9555C25.7996 29.1489 25.0549 29.3774 23.6838 29.4401C22.2013 29.5075 21.7561 29.5221 18.0013 29.5221C14.2463 29.5221 13.8012 29.5075 12.3189 29.4401C10.9478 29.3768 10.2036 29.1478 9.70748 28.9552C9.05133 28.7003 8.58248 28.3957 8.0903 27.9035C7.59811 27.4113 7.29352 26.9437 7.038 26.2872C6.84548 25.792 6.61613 25.0478 6.55369 23.6767C6.48633 22.1943 6.47283 21.7491 6.47283 17.9937C6.47283 14.2384 6.48633 13.7954 6.55369 12.313C6.61641 10.9419 6.84548 10.1977 7.038 9.70199C7.29295 9.0457 7.59811 8.57699 8.09044 8.08481C8.58263 7.59262 9.05133 7.28788 9.70762 7.03251C10.2033 6.83915 10.9478 6.61063 12.3189 6.54763C13.6162 6.48899 14.1189 6.47142 16.7397 6.46846V6.47198ZM25.5078 8.80692C24.5762 8.80692 23.8203 9.56207 23.8203 10.4939C23.8203 11.4255 24.5762 12.1814 25.5078 12.1814C26.4395 12.1814 27.1953 11.4255 27.1953 10.4939C27.1953 9.56221 26.4395 8.80635 25.5078 8.80635V8.80692ZM18.0013 10.7786C14.0131 10.7786 10.7796 14.0122 10.7796 18.0004C10.7796 21.9887 14.0131 25.2207 18.0013 25.2207C21.9895 25.2207 25.2219 21.9887 25.2219 18.0004C25.2219 14.0123 21.9893 10.7786 18.001 10.7786H18.0013ZM18.0013 13.3128C20.59 13.3128 22.6889 15.4114 22.6889 18.0004C22.6889 20.5892 20.59 22.688 18.0013 22.688C15.4124 22.688 13.3138 20.5892 13.3138 18.0004C13.3138 15.4114 15.4124 13.3128 18.0013 13.3128Z" fill="white"/>
</g>
</g>
<defs>
<radialGradient id="paint0_radial_101_36" cx="0" cy="0" r="1" gradientUnits="userSpaceOnUse" gradientTransform="translate(9.5625 38.7727) rotate(-90) scale(35.6787 33.184)">
<stop stop-color="#FFDD55"/>
<stop offset="0.1" stop-color="#FFDD55"/>
<stop offset="0.5" stop-color="#FF543E"/>
<stop offset="1" stop-color="#C837AB"/>
</radialGradient>
<radialGradient id="paint1_radial_101_36" cx="0" cy="0" r="1" gradientUnits="userSpaceOnUse" gradientTransform="translate(-6.03014 2.59327) rotate(78.681) scale(15.9486 65.7405)">
<stop stop-color="#3771C8"/>
<stop offset="0.128" stop-color="#3771C8"/>
<stop offset="1" stop-color="#6600FF" stop-opacity="0"/>
</radialGradient>
</defs>
</svg>
