<svg width="24" height="24" viewBox="0 0 24 24" fill="none" xmlns="http://www.w3.org/2000/svg">
<g id="Group">
<path id="Vector" d="M11.7596 23.52C18.2542 23.52 23.5192 18.2549 23.5192 11.76C23.5192 5.26513 18.2542 0 11.7596 0C5.26495 0 0 5.26513 0 11.76C0 18.2549 5.26495 23.52 11.7596 23.52Z" fill="#007AB9"/>
<g id="Group_2">
<path id="Vector_2" d="M18.785 12.7064V17.5548H15.9741V13.0313C15.9741 11.8955 15.5683 11.1199 14.5506 11.1199C13.7739 11.1199 13.3125 11.6421 13.1088 12.1477C13.0348 12.3284 13.0157 12.5794 13.0157 12.8328V17.5546H10.2046C10.2046 17.5546 10.2423 9.89334 10.2046 9.10029H13.0159V10.2983C13.0102 10.3078 13.0023 10.317 12.9972 10.326H13.0159V10.2983C13.3895 9.72353 14.0556 8.90177 15.5492 8.90177C17.3985 8.90177 18.785 10.1101 18.785 12.7064ZM7.26398 5.02502C6.30243 5.02502 5.67334 5.65623 5.67334 6.48554C5.67334 7.29724 6.28419 7.94668 7.22709 7.94668H7.24532C8.22574 7.94668 8.83534 7.29724 8.83534 6.48554C8.81668 5.65623 8.22574 5.02502 7.26398 5.02502ZM5.84041 17.5548H8.65045V9.10029H5.84041V17.5548Z" fill="#F1F2F2"/>
</g>
</g>
</svg>
