<svg width="164" height="202" viewBox="0 0 164 202" fill="none" xmlns="http://www.w3.org/2000/svg">
<path d="M57.8569 21.3769C64.2844 50.5823 49.232 94.9199 40.9024 113.438L90.8898 124.244C95.7799 99.4938 93.4397 42.174 84.3138 8.05427L57.8569 21.3769Z" fill="url(#paint0_linear_44_190)" fill-opacity="0.32"/>
<path d="M105.784 21.3769C99.3563 50.5823 114.409 94.9199 122.738 113.438L72.7508 124.244C67.8608 99.4938 70.201 42.174 79.3268 8.05427L105.784 21.3769Z" fill="url(#paint1_linear_44_190)" fill-opacity="0.32"/>
<g filter="url(#filter0_d_44_190)">
<circle cx="40.7587" cy="40.7587" r="40.7587" transform="matrix(-4.37114e-08 -1 -1 4.37114e-08 122.999 156)" fill="white"/>
</g>
<g clip-path="url(#clip0_44_190)">
<rect x="51.9972" y="85" width="60" height="60" rx="30" fill="white"/>
<path d="M79.1137 106.891C70.0637 105.091 63.3877 111.301 65.0037 120.497C66.0137 126.241 70.8217 128.505 76.1997 128.631C79.4457 128.707 82.6677 128.409 85.8677 127.735C85.9097 127.725 85.9397 127.689 85.9397 127.645V96.809C85.9397 96.763 85.9017 96.725 85.8537 96.725L79.3457 96.729C79.2677 96.729 79.2277 96.769 79.2277 96.847V106.799C79.2257 106.851 79.1837 106.893 79.1317 106.893C79.1257 106.893 79.1197 106.893 79.1137 106.893" stroke="#0D18A0" stroke-width="2.4"/>
<path d="M96.5813 96.824C96.5813 96.788 96.5533 96.76 96.5173 96.76H89.9213C89.8853 96.76 89.8573 96.788 89.8573 96.824V103.588C89.8573 103.624 89.8853 103.652 89.9213 103.652H96.5173C96.5533 103.652 96.5813 103.624 96.5813 103.588V96.824Z" stroke="#0D18A0" stroke-width="2.4"/>
<path d="M83.4121 134.789L89.4381 137.657C89.4841 137.679 89.5421 137.675 89.6081 137.645C95.4721 135.027 96.5881 130.085 96.5921 124.111C96.5961 118.453 96.5921 112.795 96.5841 107.135C96.5841 107.099 96.5561 107.071 96.5201 107.071L89.9561 107.067C89.8941 107.067 89.8641 107.099 89.8641 107.161C89.8701 112.539 89.8581 117.919 89.8281 123.297C89.8101 126.697 89.4781 130.169 86.7621 132.621C85.8501 133.443 84.5741 134.117 83.4121 134.665C83.3781 134.681 83.3621 134.721 83.3781 134.755C83.3841 134.771 83.3961 134.783 83.4121 134.789Z" stroke="#0D18A0" stroke-width="2.4"/>
<path d="M74.6173 112.415C71.8253 113.591 71.2393 116.875 71.8373 119.539C72.6313 123.081 75.9853 123.669 79.1513 123.045C79.2073 123.035 79.2353 123.001 79.2353 122.943L79.2213 112.455C79.2213 112.395 79.1913 112.355 79.1333 112.337C77.4673 111.823 75.9633 111.849 74.6173 112.415Z" stroke="#0D18A0" stroke-width="2.4"/>
<path d="M57.9552 85H106.065C109.475 85.564 111.451 87.55 111.997 90.956V139.066C111.435 142.476 109.449 144.454 106.037 145H57.9292C54.5212 144.438 52.5432 142.452 51.9972 139.046V90.932C52.5592 87.522 54.5452 85.546 57.9552 85ZM78.2172 106.892C69.1672 105.092 62.4912 111.302 64.1072 120.498C65.1172 126.242 69.9252 128.506 75.3032 128.632C78.5492 128.708 81.7712 128.41 84.9712 127.736C85.0132 127.726 85.0432 127.69 85.0432 127.646V96.81C85.0432 96.764 85.0052 96.726 84.9572 96.726L78.4492 96.73C78.3712 96.73 78.3312 96.77 78.3312 96.848V106.8C78.3292 106.852 78.2872 106.894 78.2352 106.894C78.2292 106.894 78.2232 106.894 78.2172 106.894V106.892ZM95.6872 96.826C95.6872 96.79 95.6592 96.762 95.6232 96.762H89.0272C88.9912 96.762 88.9632 96.79 88.9632 96.826V103.59C88.9632 103.626 88.9912 103.654 89.0272 103.654H95.6232C95.6592 103.654 95.6872 103.626 95.6872 103.59V96.826ZM82.5112 134.792L88.5372 137.66C88.5832 137.682 88.6412 137.678 88.7072 137.648C94.5712 135.03 95.6872 130.088 95.6912 124.114C95.6952 118.456 95.6912 112.798 95.6832 107.138C95.6832 107.102 95.6552 107.074 95.6192 107.074L89.0552 107.07C88.9932 107.07 88.9632 107.102 88.9632 107.164C88.9692 112.542 88.9572 117.922 88.9272 123.3C88.9092 126.7 88.5772 130.172 85.8612 132.624C84.9492 133.446 83.6732 134.12 82.5112 134.668C82.4772 134.684 82.4612 134.724 82.4772 134.758C82.4832 134.774 82.4952 134.786 82.5112 134.792Z" fill="#0D18A0"/>
<path d="M79.2294 106.802V96.8495C79.2294 96.7715 79.2714 96.7315 79.3494 96.7315L85.8574 96.7275C85.9054 96.7275 85.9434 96.7655 85.9434 96.8115V127.648C85.9434 127.692 85.9134 127.728 85.8714 127.738C82.6714 128.412 79.4494 128.71 76.2034 128.634C70.8254 128.508 66.0174 126.244 65.0074 120.5C63.3914 111.304 70.0674 105.094 79.1174 106.894C79.1674 106.904 79.2174 106.87 79.2274 106.82C79.2274 106.814 79.2274 106.808 79.2274 106.802H79.2294ZM74.6154 112.416C71.8234 113.592 71.2374 116.876 71.8354 119.54C72.6294 123.082 75.9834 123.67 79.1494 123.046C79.2054 123.036 79.2334 123.002 79.2334 122.944L79.2194 112.456C79.2194 112.396 79.1894 112.356 79.1314 112.338C77.4654 111.824 75.9614 111.85 74.6154 112.416Z" fill="#FFFFFD"/>
<path d="M96.521 96.7607H89.925C89.8896 96.7607 89.861 96.7894 89.861 96.8247V103.589C89.861 103.624 89.8896 103.653 89.925 103.653H96.521C96.5563 103.653 96.585 103.624 96.585 103.589V96.8247C96.585 96.7894 96.5563 96.7607 96.521 96.7607Z" fill="#FFFFFD"/>
<path d="M89.4277 137.66L83.4017 134.792C83.3677 134.776 83.3517 134.736 83.3677 134.702C83.3737 134.686 83.3857 134.674 83.4017 134.668C84.5637 134.12 85.8397 133.446 86.7517 132.624C89.4677 130.172 89.7997 126.7 89.8177 123.3C89.8477 117.922 89.8597 112.542 89.8537 107.164C89.8537 107.102 89.8837 107.07 89.9457 107.07L96.5097 107.074C96.5457 107.074 96.5737 107.102 96.5737 107.138C96.5837 112.798 96.5857 118.456 96.5817 124.114C96.5777 130.088 95.4617 135.03 89.5977 137.648C89.5317 137.678 89.4737 137.682 89.4277 137.66Z" fill="#FFFFFD"/>
<path d="M71.8201 119.538C71.2221 116.874 71.8081 113.59 74.6001 112.414C75.9461 111.848 77.4501 111.822 79.1161 112.336C79.1741 112.354 79.2041 112.394 79.2041 112.454L79.2181 122.942C79.2181 123 79.1901 123.034 79.1341 123.044C75.9681 123.668 72.6141 123.08 71.8201 119.538Z" fill="#0D18A0"/>
</g>
<g filter="url(#filter1_f_44_190)">
<circle cx="87.7697" cy="63.3966" r="1.35534" transform="rotate(-180 87.7697 63.3966)" fill="white"/>
</g>
<g filter="url(#filter2_f_44_190)">
<circle cx="62.6895" cy="49.1661" r="0.677668" transform="rotate(-180 62.6895 49.1661)" fill="white"/>
</g>
<g filter="url(#filter3_f_44_190)">
<circle cx="96.5801" cy="34.2579" r="0.677668" transform="rotate(-180 96.5801 34.2579)" fill="white"/>
</g>
<defs>
<filter id="filter0_d_44_190" x="0.561588" y="38.0913" width="163.357" height="163.357" filterUnits="userSpaceOnUse" color-interpolation-filters="sRGB">
<feFlood flood-opacity="0" result="BackgroundImageFix"/>
<feColorMatrix in="SourceAlpha" type="matrix" values="0 0 0 0 0 0 0 0 0 0 0 0 0 0 0 0 0 0 127 0" result="hardAlpha"/>
<feOffset dy="4.52875"/>
<feGaussianBlur stdDeviation="20.46"/>
<feComposite in2="hardAlpha" operator="out"/>
<feColorMatrix type="matrix" values="0 0 0 0 0.238875 0 0 0 0 0.23982 0 0 0 0 0.2625 0 0 0 0.15 0"/>
<feBlend mode="normal" in2="BackgroundImageFix" result="effect1_dropShadow_44_190"/>
<feBlend mode="normal" in="SourceGraphic" in2="effect1_dropShadow_44_190" result="shape"/>
</filter>
<filter id="filter1_f_44_190" x="85.8722" y="61.4991" width="3.79496" height="3.79496" filterUnits="userSpaceOnUse" color-interpolation-filters="sRGB">
<feFlood flood-opacity="0" result="BackgroundImageFix"/>
<feBlend mode="normal" in="SourceGraphic" in2="BackgroundImageFix" result="shape"/>
<feGaussianBlur stdDeviation="0.271067" result="effect1_foregroundBlur_44_190"/>
</filter>
<filter id="filter2_f_44_190" x="61.4697" y="47.9463" width="2.43962" height="2.43962" filterUnits="userSpaceOnUse" color-interpolation-filters="sRGB">
<feFlood flood-opacity="0" result="BackgroundImageFix"/>
<feBlend mode="normal" in="SourceGraphic" in2="BackgroundImageFix" result="shape"/>
<feGaussianBlur stdDeviation="0.271067" result="effect1_foregroundBlur_44_190"/>
</filter>
<filter id="filter3_f_44_190" x="95.3603" y="33.0381" width="2.43962" height="2.43962" filterUnits="userSpaceOnUse" color-interpolation-filters="sRGB">
<feFlood flood-opacity="0" result="BackgroundImageFix"/>
<feBlend mode="normal" in="SourceGraphic" in2="BackgroundImageFix" result="shape"/>
<feGaussianBlur stdDeviation="0.271067" result="effect1_foregroundBlur_44_190"/>
</filter>
<linearGradient id="paint0_linear_44_190" x1="64.0336" y1="119.711" x2="56.1673" y2="34.3194" gradientUnits="userSpaceOnUse">
<stop stop-color="#D9D9D9"/>
<stop offset="1" stop-color="#D9D9D9" stop-opacity="0"/>
</linearGradient>
<linearGradient id="paint1_linear_44_190" x1="99.607" y1="119.711" x2="107.473" y2="34.3194" gradientUnits="userSpaceOnUse">
<stop stop-color="#D9D9D9"/>
<stop offset="1" stop-color="#D9D9D9" stop-opacity="0"/>
</linearGradient>
<clipPath id="clip0_44_190">
<rect x="51.9972" y="85" width="60" height="60" rx="30" fill="white"/>
</clipPath>
</defs>
</svg>
