<svg xmlns="http://www.w3.org/2000/svg" width="164" height="193" viewBox="0 0 164 193" fill="none">
  <path d="M157.143 41.4648C135.169 61.7483 122.163 106.729 118.407 126.684L41.6395 97.8078C51.7812 74.7072 108.312 23.3881 135.31 0.61618L157.143 41.4648Z" fill="url(#paint0_linear_44_124)" fill-opacity="0.32"/>
  <path d="M157.143 41.4648C135.169 61.7483 122.163 106.729 118.407 126.684L71.2195 106.964C81.3613 83.8629 116.059 38.1782 143.057 15.4062L157.143 41.4648Z" fill="url(#paint1_linear_44_124)" fill-opacity="0.32"/>
  <g filter="url(#filter0_d_44_124)">
    <circle cx="40.7587" cy="40.7587" r="40.7587" transform="matrix(-4.37114e-08 -1 -1 4.37114e-08 122.996 147)" fill="white"/>
  </g>
  <path d="M101.044 101.892C100.154 101.846 99.2979 102.002 98.4799 102.356C98.4039 102.388 98.3779 102.444 98.4039 102.522C98.5219 102.892 98.7299 103.208 99.0279 103.472C100.092 104.412 101.398 104.798 102.47 105.732C102.494 105.752 102.528 105.75 102.548 105.726C102.564 105.706 102.566 105.676 102.552 105.654C102.146 105.12 101.69 104.626 101.182 104.168C100.706 103.74 99.9919 103.398 99.4459 102.892C99.3999 102.848 99.3979 102.776 99.4399 102.732C99.4559 102.714 99.4779 102.702 99.4999 102.698L101.902 102.228C101.97 102.214 102.014 102.148 102 102.08C101.996 102.058 101.986 102.04 101.972 102.022C100.842 100.744 99.4899 99.7897 97.9159 99.1617C97.7339 99.0897 97.5999 98.9637 97.5099 98.7857C96.6679 97.1057 95.9739 95.0757 94.9559 93.6797C93.5319 91.7237 91.1759 89.6377 88.5939 89.6177C88.5259 89.6177 88.4619 89.5917 88.4139 89.5497C87.7879 89.0057 87.0939 88.6457 86.3279 88.4717C85.0879 88.1897 84.5459 89.4037 85.2379 90.3057C85.8619 91.1157 86.2979 91.6197 86.5899 92.6177C86.8599 93.5497 87.2839 94.4097 87.8579 95.1977C87.8959 95.2517 87.9059 95.3097 87.8859 95.3737C87.3159 97.1177 87.1459 98.8197 88.1259 100.46C88.5759 101.212 89.6879 101.258 89.7179 100.178C89.7239 99.9597 89.7779 99.6737 89.8799 99.3177C89.9019 99.2437 89.9299 99.2397 89.9659 99.3077C90.6119 100.572 91.5279 101.586 92.7099 102.35C92.7139 102.352 92.7179 102.35 92.7199 102.346C92.7199 102.344 92.7199 102.34 92.7199 102.338C91.4879 101.248 90.5279 99.3597 89.9599 97.8317C89.9339 97.7637 89.8959 97.7537 89.8419 97.8017C89.1539 98.4037 89.0379 99.3697 88.9919 100.182C88.9879 100.29 88.8959 100.372 88.7899 100.368C88.7239 100.366 88.6639 100.328 88.6299 100.27C87.7139 98.7057 87.8299 97.1797 88.4079 95.5357C88.5859 95.0297 88.3899 94.8997 88.0699 94.5717C87.7739 94.2697 87.4879 93.5617 87.3419 93.0337C87.0479 91.9717 86.5479 91.0197 85.8379 90.1777C85.6479 89.9537 85.4739 89.6417 85.4919 89.3857C85.5059 89.1857 85.6819 89.0337 85.8819 89.0497C85.9039 89.0497 85.9259 89.0557 85.9479 89.0597C86.7219 89.2617 87.4139 89.6217 88.0259 90.1377C88.0799 90.1837 88.1419 90.2077 88.2119 90.2137C88.8759 90.2697 89.5179 90.2677 90.1239 90.5497C92.4019 91.6077 94.0859 93.2937 95.1759 95.6057C95.5099 96.3117 95.9799 97.3137 96.5899 98.6077C96.7639 98.9817 96.9619 99.3097 97.1839 99.5957C97.2239 99.6497 97.2819 99.6877 97.3459 99.7037C98.7539 100.094 100.006 100.776 101.102 101.752C101.136 101.782 101.138 101.832 101.11 101.864C101.094 101.882 101.07 101.892 101.044 101.892Z" stroke="#A2BCD0" stroke-width="0.786667"/>
  <path d="M88.5101 91.5148L89.1321 92.4848C89.1401 92.4968 89.1561 92.5008 89.1681 92.4928L89.1781 92.4848C89.4101 92.3368 89.4561 91.9968 89.2821 91.7248L89.2621 91.6948C89.0881 91.4248 88.7601 91.3248 88.5281 91.4728L88.5181 91.4788C88.5061 91.4868 88.5021 91.5028 88.5101 91.5148Z" stroke="#A2BCD0" stroke-width="0.786667"/>
  <path d="M81.6195 111.224C83.7195 112.464 82.1835 114.446 80.1955 114.068C79.5575 113.948 79.0255 113.784 78.5995 113.576C78.5535 113.554 78.4995 113.574 78.4775 113.618L78.1415 114.3C78.1175 114.35 78.1275 114.39 78.1715 114.42C80.0615 115.744 83.7335 115.822 84.2895 112.902C84.7435 110.522 82.2335 109.922 80.6975 108.896C80.2275 108.582 79.9635 108.276 79.9075 107.978C79.5175 105.894 82.0775 106.128 83.2695 106.66C83.3235 106.684 83.3875 106.66 83.4135 106.606L83.7195 105.948C83.7515 105.878 83.7355 105.824 83.6695 105.784C82.2195 104.884 79.8775 104.704 78.7515 106.18C77.9055 107.288 78.0755 109.172 79.3515 109.902C80.1155 110.34 80.8715 110.782 81.6195 111.224Z" stroke="#958168" stroke-width="0.786667"/>
  <path d="M91.5247 114.465C92.3747 113.555 92.8527 112.365 92.9547 110.895C93.0687 109.247 93.0047 107.341 91.8967 106.143C90.5827 104.725 87.9947 104.771 86.6207 105.939C85.9307 106.527 85.4587 107.425 85.2087 108.631C84.5027 112.031 85.5307 116.227 90.1187 115.185C90.1787 115.171 90.2427 115.181 90.2947 115.211L92.4647 116.485C92.5407 116.531 92.6007 116.515 92.6467 116.439L93.1747 115.545C93.2167 115.473 93.2007 115.419 93.1267 115.381L91.5487 114.597C91.4827 114.563 91.4747 114.519 91.5247 114.465Z" stroke="#958168" stroke-width="0.786667"/>
  <path d="M67.71 107.428C67.964 109.97 68.114 112.518 68.164 115.072C68.166 115.154 68.21 115.196 68.292 115.196H69.71C69.794 115.196 69.834 115.154 69.832 115.068C69.722 111.81 69.47 108.564 69.076 105.33C69.068 105.254 69.026 105.216 68.948 105.216H67.216C67.144 105.218 67.082 105.264 67.06 105.332L64.736 112.39C64.726 112.422 64.69 112.44 64.658 112.43C64.64 112.424 64.624 112.41 64.618 112.39L62.3 105.314C62.278 105.248 62.234 105.214 62.164 105.216H60.308C60.242 105.218 60.206 105.25 60.198 105.316C59.804 108.556 59.566 111.806 59.484 115.068C59.482 115.154 59.522 115.196 59.606 115.196H60.876C60.926 115.194 60.952 115.17 60.954 115.12L61.29 107.404C61.294 107.372 61.322 107.35 61.354 107.352C61.376 107.354 61.394 107.368 61.402 107.39L63.836 115.072C63.862 115.154 63.918 115.194 64.004 115.194H65.034C65.104 115.194 65.148 115.16 65.17 115.094L67.616 107.418C67.624 107.392 67.65 107.378 67.676 107.386C67.696 107.392 67.71 107.408 67.71 107.428Z" stroke="#A2BCD0" stroke-width="0.786667"/>
  <path d="M99.1923 114.052C99.1923 113.996 99.1483 113.952 99.0923 113.952H96.1523C96.0963 113.952 96.0523 113.91 96.0523 113.854V105.322C96.0523 105.266 96.0083 105.222 95.9523 105.222L94.5623 105.208C94.5063 105.208 94.4623 105.252 94.4623 105.308V115.094C94.4603 115.15 94.5043 115.194 94.5603 115.194H99.1003C99.1563 115.194 99.2003 115.15 99.2003 115.094L99.1923 114.052Z" stroke="#958168" stroke-width="0.786667"/>
  <path d="M73.9676 113.939C73.9496 113.601 73.9296 113.255 73.8336 112.925C73.3536 111.267 72.8516 109.611 72.3256 107.961C72.2996 107.879 72.2416 107.837 72.1556 107.837L70.7936 107.843C70.7016 107.843 70.6696 107.889 70.6996 107.975C71.3696 110.007 72.0196 112.045 72.6516 114.091C73.2256 115.947 72.5356 116.783 70.6156 116.693C70.5436 116.689 70.5076 116.723 70.5076 116.795V117.443C70.5056 117.519 70.5416 117.571 70.6116 117.597C74.7736 119.209 76.6076 110.337 77.0156 107.933C77.0256 107.871 76.9976 107.841 76.9356 107.841H75.5536C75.4916 107.839 75.4576 107.871 75.4496 107.933C75.1976 109.991 74.7236 111.997 74.0296 113.949C73.9936 114.049 73.9736 114.045 73.9676 113.939Z" stroke="#A2BCD0" stroke-width="0.786667"/>
  <path d="M100.732 114.171L100.89 114.129C100.934 114.119 100.962 114.075 100.952 114.031C100.944 113.991 100.908 113.965 100.868 113.967L100.042 113.961C99.996 113.961 99.958 113.997 99.958 114.045C99.958 114.079 99.978 114.111 100.01 114.123L100.26 114.221C100.316 114.243 100.352 114.297 100.352 114.359L100.332 115.073C100.332 115.151 100.368 115.191 100.446 115.197C100.474 115.199 100.5 115.193 100.524 115.179C100.562 115.155 100.584 115.105 100.588 115.031C100.598 114.801 100.602 114.571 100.604 114.337C100.604 114.249 100.646 114.193 100.732 114.171Z" stroke="#958168" stroke-width="0.786667"/>
  <path d="M102.343 114.522L102.325 115.082C102.325 115.104 102.333 115.12 102.351 115.13C102.367 115.138 102.383 115.148 102.399 115.16C102.451 115.196 102.523 115.184 102.561 115.134C102.575 115.114 102.581 115.092 102.581 115.068L102.597 114.152C102.597 114.028 102.497 113.928 102.375 113.926C102.281 113.926 102.197 113.984 102.165 114.072L101.939 114.696C101.915 114.762 101.889 114.764 101.861 114.696L101.561 114C101.521 113.904 101.413 113.86 101.319 113.898C101.249 113.928 101.203 113.996 101.203 114.074V115.148C101.199 115.196 101.239 115.236 101.287 115.238C101.325 115.238 101.357 115.216 101.371 115.182C101.461 114.972 101.479 114.756 101.425 114.534C101.425 114.524 101.425 114.514 101.433 114.508L101.477 114.464C101.487 114.454 101.503 114.454 101.513 114.464C101.515 114.466 101.517 114.47 101.519 114.472L101.799 115.136C101.821 115.192 101.885 115.218 101.939 115.196C101.967 115.184 101.991 115.162 102.001 115.132L102.243 114.498C102.255 114.472 102.285 114.458 102.311 114.47C102.331 114.478 102.343 114.498 102.343 114.518" stroke="#958168" stroke-width="0.786667"/>
  <path d="M90.3443 113.654C91.6663 112.426 91.7723 107.756 90.2403 106.668C89.3983 106.07 88.0603 106.206 87.4163 107.026C86.6083 108.054 86.6123 110.248 86.7963 111.472C86.9723 112.656 87.2863 113.734 88.4863 114.038C89.2443 114.228 89.8643 114.1 90.3443 113.654Z" stroke="#958168" stroke-width="0.786667"/>
  <path d="M80.0263 76H81.9943C98.0103 76.784 110.236 89.006 110.996 105.026V106.994C110.696 113.796 108.49 119.726 104.378 124.784C98.7023 131.766 91.2343 135.504 81.9723 136H80.0023C73.2003 135.7 67.2703 133.494 62.2123 129.384C55.2303 123.706 51.4923 116.238 50.9963 106.976V104.996C51.5403 95.354 55.5403 87.69 62.9963 82.008C67.8903 78.276 73.5683 76.274 80.0263 76ZM101.04 101.894C100.15 101.848 99.2943 102.004 98.4763 102.358C98.4003 102.39 98.3743 102.446 98.4003 102.524C98.5183 102.894 98.7263 103.21 99.0243 103.474C100.088 104.414 101.394 104.8 102.466 105.734C102.49 105.754 102.524 105.752 102.544 105.728C102.56 105.708 102.562 105.678 102.548 105.656C102.142 105.122 101.686 104.628 101.178 104.17C100.702 103.742 99.9883 103.4 99.4423 102.894C99.3963 102.85 99.3943 102.778 99.4363 102.734C99.4523 102.716 99.4743 102.704 99.4963 102.7L101.898 102.23C101.966 102.216 102.01 102.15 101.996 102.082C101.992 102.06 101.982 102.042 101.968 102.024C100.838 100.746 99.4863 99.792 97.9123 99.164C97.7303 99.092 97.5963 98.966 97.5063 98.788C96.6643 97.108 95.9703 95.078 94.9523 93.682C93.5283 91.726 91.1723 89.64 88.5903 89.62C88.5223 89.62 88.4583 89.594 88.4103 89.552C87.7843 89.008 87.0903 88.648 86.3243 88.474C85.0843 88.192 84.5423 89.406 85.2343 90.308C85.8583 91.118 86.2943 91.622 86.5863 92.62C86.8563 93.552 87.2803 94.412 87.8543 95.2C87.8923 95.254 87.9023 95.312 87.8823 95.376C87.3123 97.12 87.1423 98.822 88.1223 100.462C88.5723 101.214 89.6843 101.26 89.7143 100.18C89.7203 99.962 89.7743 99.676 89.8763 99.32C89.8983 99.246 89.9263 99.242 89.9623 99.31C90.6083 100.574 91.5243 101.588 92.7063 102.352C92.7103 102.354 92.7143 102.352 92.7163 102.348C92.7163 102.346 92.7163 102.342 92.7163 102.34C91.4843 101.25 90.5243 99.362 89.9563 97.834C89.9303 97.766 89.8923 97.756 89.8383 97.804C89.1503 98.406 89.0343 99.372 88.9883 100.184C88.9843 100.292 88.8923 100.374 88.7863 100.37C88.7203 100.368 88.6603 100.33 88.6263 100.272C87.7103 98.708 87.8263 97.182 88.4043 95.538C88.5823 95.032 88.3863 94.902 88.0663 94.574C87.7703 94.272 87.4843 93.564 87.3383 93.036C87.0443 91.974 86.5443 91.022 85.8343 90.18C85.6443 89.956 85.4703 89.644 85.4883 89.388C85.5023 89.188 85.6783 89.036 85.8783 89.052C85.9003 89.052 85.9223 89.058 85.9443 89.062C86.7183 89.264 87.4103 89.624 88.0223 90.14C88.0763 90.186 88.1383 90.21 88.2083 90.216C88.8723 90.272 89.5143 90.27 90.1203 90.552C92.3983 91.61 94.0823 93.296 95.1723 95.608C95.5063 96.314 95.9763 97.316 96.5863 98.61C96.7603 98.984 96.9583 99.312 97.1803 99.598C97.2203 99.652 97.2783 99.69 97.3423 99.706C98.7503 100.096 100.002 100.778 101.098 101.754C101.132 101.784 101.134 101.834 101.106 101.866C101.09 101.884 101.066 101.894 101.04 101.894ZM88.5103 91.516L89.1323 92.486C89.1403 92.498 89.1563 92.502 89.1683 92.494L89.1783 92.486C89.4103 92.338 89.4563 91.998 89.2823 91.726L89.2623 91.696C89.0883 91.426 88.7603 91.326 88.5283 91.474L88.5183 91.48C88.5063 91.488 88.5023 91.504 88.5103 91.516ZM81.6143 111.226C83.7143 112.466 82.1783 114.448 80.1903 114.07C79.5523 113.95 79.0203 113.786 78.5943 113.578C78.5483 113.556 78.4943 113.576 78.4723 113.62L78.1363 114.302C78.1123 114.352 78.1223 114.392 78.1663 114.422C80.0563 115.746 83.7283 115.824 84.2843 112.904C84.7383 110.524 82.2283 109.924 80.6923 108.898C80.2223 108.584 79.9583 108.278 79.9023 107.98C79.5123 105.896 82.0723 106.13 83.2643 106.662C83.3183 106.686 83.3823 106.662 83.4083 106.608L83.7143 105.95C83.7463 105.88 83.7303 105.826 83.6643 105.786C82.2143 104.886 79.8723 104.706 78.7463 106.182C77.9003 107.29 78.0703 109.174 79.3463 109.904C80.1103 110.342 80.8663 110.784 81.6143 111.226ZM91.5203 114.468C92.3703 113.558 92.8483 112.368 92.9503 110.898C93.0643 109.25 93.0003 107.344 91.8923 106.146C90.5783 104.728 87.9903 104.774 86.6163 105.942C85.9263 106.53 85.4543 107.428 85.2043 108.634C84.4983 112.034 85.5263 116.23 90.1143 115.188C90.1743 115.174 90.2383 115.184 90.2903 115.214L92.4603 116.488C92.5363 116.534 92.5963 116.518 92.6423 116.442L93.1703 115.548C93.2123 115.476 93.1963 115.422 93.1223 115.384L91.5443 114.6C91.4783 114.566 91.4703 114.522 91.5203 114.468ZM67.7063 107.43C67.9603 109.972 68.1103 112.52 68.1603 115.074C68.1623 115.156 68.2063 115.198 68.2883 115.198H69.7063C69.7903 115.198 69.8303 115.156 69.8283 115.07C69.7183 111.812 69.4663 108.566 69.0723 105.332C69.0643 105.256 69.0223 105.218 68.9443 105.218H67.2123C67.1403 105.22 67.0783 105.266 67.0563 105.334L64.7323 112.392C64.7223 112.424 64.6863 112.442 64.6543 112.432C64.6363 112.426 64.6203 112.412 64.6143 112.392L62.2963 105.316C62.2743 105.25 62.2303 105.216 62.1603 105.218H60.3043C60.2383 105.22 60.2023 105.252 60.1943 105.318C59.8003 108.558 59.5623 111.808 59.4803 115.07C59.4783 115.156 59.5183 115.198 59.6023 115.198H60.8723C60.9223 115.196 60.9483 115.172 60.9503 115.122L61.2863 107.406C61.2903 107.374 61.3183 107.352 61.3503 107.354C61.3723 107.356 61.3903 107.37 61.3983 107.392L63.8323 115.074C63.8583 115.156 63.9143 115.196 64.0003 115.196H65.0303C65.1003 115.196 65.1443 115.162 65.1663 115.096L67.6123 107.42C67.6203 107.394 67.6463 107.38 67.6723 107.388C67.6923 107.394 67.7063 107.41 67.7063 107.43ZM99.1903 114.056C99.1903 114 99.1463 113.956 99.0903 113.956H96.1503C96.0943 113.956 96.0503 113.914 96.0503 113.858V105.326C96.0503 105.27 96.0063 105.226 95.9503 105.226L94.5603 105.212C94.5043 105.212 94.4603 105.256 94.4603 105.312V115.098C94.4583 115.154 94.5023 115.198 94.5583 115.198H99.0983C99.1543 115.198 99.1983 115.154 99.1983 115.098L99.1903 114.056ZM73.9663 113.94C73.9483 113.602 73.9283 113.256 73.8323 112.926C73.3523 111.268 72.8503 109.612 72.3243 107.962C72.2983 107.88 72.2403 107.838 72.1543 107.838L70.7923 107.844C70.7003 107.844 70.6683 107.89 70.6983 107.976C71.3683 110.008 72.0183 112.046 72.6503 114.092C73.2243 115.948 72.5343 116.784 70.6143 116.694C70.5423 116.69 70.5063 116.724 70.5063 116.796V117.444C70.5043 117.52 70.5403 117.572 70.6103 117.598C74.7723 119.21 76.6063 110.338 77.0143 107.934C77.0243 107.872 76.9963 107.842 76.9343 107.842H75.5523C75.4903 107.84 75.4563 107.872 75.4483 107.934C75.1963 109.992 74.7223 111.998 74.0283 113.95C73.9923 114.05 73.9723 114.046 73.9663 113.94ZM100.726 114.172L100.884 114.13C100.928 114.12 100.956 114.076 100.946 114.032C100.938 113.992 100.902 113.966 100.862 113.968L100.036 113.962C99.9903 113.962 99.9523 113.998 99.9523 114.046C99.9523 114.08 99.9723 114.112 100.004 114.124L100.254 114.222C100.31 114.244 100.346 114.298 100.346 114.36L100.326 115.074C100.326 115.152 100.362 115.192 100.44 115.198C100.468 115.2 100.494 115.194 100.518 115.18C100.556 115.156 100.578 115.106 100.582 115.032C100.592 114.802 100.596 114.572 100.598 114.338C100.598 114.25 100.64 114.194 100.726 114.172ZM102.344 114.524L102.326 115.084C102.326 115.106 102.334 115.122 102.352 115.132C102.368 115.14 102.384 115.15 102.4 115.162C102.452 115.198 102.524 115.186 102.562 115.136C102.576 115.116 102.582 115.094 102.582 115.07L102.598 114.154C102.598 114.03 102.498 113.93 102.376 113.928C102.282 113.928 102.198 113.986 102.166 114.074L101.94 114.698C101.916 114.764 101.89 114.766 101.862 114.698L101.562 114.002C101.522 113.906 101.414 113.862 101.32 113.9C101.25 113.93 101.204 113.998 101.204 114.076V115.15C101.2 115.198 101.24 115.238 101.288 115.24C101.326 115.24 101.358 115.218 101.372 115.184C101.462 114.974 101.48 114.758 101.426 114.536C101.426 114.526 101.426 114.516 101.434 114.51L101.478 114.466C101.488 114.456 101.504 114.456 101.514 114.466C101.516 114.468 101.518 114.472 101.52 114.474L101.8 115.138C101.822 115.194 101.886 115.22 101.94 115.198C101.968 115.186 101.992 115.164 102.002 115.134L102.244 114.5C102.256 114.474 102.286 114.46 102.312 114.472C102.332 114.48 102.344 114.5 102.344 114.52V114.524Z" fill="#0D18A0"/>
  <path d="M101.04 101.895C101.084 101.897 101.122 101.865 101.126 101.821C101.126 101.797 101.118 101.771 101.098 101.755C100.002 100.779 98.7503 100.097 97.3423 99.7075C97.2783 99.6915 97.2203 99.6535 97.1803 99.5995C96.9583 99.3135 96.7603 98.9855 96.5863 98.6115C95.9763 97.3175 95.5063 96.3155 95.1723 95.6095C94.0823 93.2975 92.3983 91.6115 90.1203 90.5535C89.5143 90.2715 88.8723 90.2735 88.2083 90.2175C88.1383 90.2115 88.0763 90.1875 88.0223 90.1415C87.4103 89.6255 86.7183 89.2655 85.9443 89.0635C85.7483 89.0135 85.5483 89.1295 85.4983 89.3255C85.4923 89.3475 85.4883 89.3675 85.4883 89.3895C85.4703 89.6455 85.6443 89.9575 85.8343 90.1815C86.5443 91.0235 87.0443 91.9755 87.3383 93.0375C87.4843 93.5655 87.7703 94.2735 88.0663 94.5755C88.3863 94.9035 88.5823 95.0335 88.4043 95.5395C87.8263 97.1835 87.7103 98.7095 88.6263 100.273C88.6803 100.365 88.7983 100.397 88.8903 100.345C88.9483 100.311 88.9843 100.251 88.9883 100.185C89.0343 99.3735 89.1503 98.4075 89.8383 97.8055C89.8923 97.7575 89.9303 97.7675 89.9563 97.8355C90.5243 99.3635 91.4843 101.251 92.7163 102.341C92.7183 102.345 92.7183 102.349 92.7163 102.353C92.7143 102.353 92.7103 102.355 92.7083 102.353C91.5263 101.589 90.6103 100.575 89.9643 99.3115C89.9283 99.2435 89.9003 99.2475 89.8783 99.3215C89.7763 99.6775 89.7223 99.9635 89.7163 100.181C89.6863 101.261 88.5743 101.215 88.1243 100.463C87.1443 98.8235 87.3143 97.1215 87.8843 95.3775C87.9043 95.3135 87.8943 95.2555 87.8563 95.2015C87.2823 94.4135 86.8583 93.5535 86.5883 92.6215C86.2963 91.6235 85.8603 91.1195 85.2363 90.3095C84.5443 89.4075 85.0863 88.1935 86.3263 88.4755C87.0923 88.6495 87.7863 89.0095 88.4123 89.5535C88.4603 89.5955 88.5243 89.6195 88.5923 89.6215C91.1743 89.6415 93.5303 91.7275 94.9543 93.6835C95.9723 95.0795 96.6663 97.1095 97.5083 98.7895C97.5983 98.9675 97.7323 99.0935 97.9143 99.1655C99.4883 99.7935 100.84 100.747 101.97 102.025C102.016 102.077 102.01 102.157 101.958 102.203C101.942 102.217 101.922 102.227 101.9 102.231L99.4983 102.701C99.4383 102.713 99.3983 102.771 99.4103 102.833C99.4143 102.857 99.4263 102.879 99.4443 102.895C99.9903 103.401 100.704 103.743 101.18 104.171C101.688 104.629 102.144 105.123 102.55 105.657C102.568 105.683 102.562 105.719 102.538 105.737C102.516 105.753 102.488 105.751 102.468 105.735C101.396 104.801 100.09 104.415 99.0263 103.475C98.7283 103.211 98.5203 102.895 98.4023 102.525C98.3763 102.447 98.4023 102.391 98.4783 102.359C99.2963 102.005 100.152 101.849 101.042 101.895H101.04Z" fill="white"/>
  <path d="M88.5086 91.5166C88.5006 91.5046 88.5046 91.4886 88.5166 91.4806L88.5266 91.4746C88.7586 91.3266 89.0866 91.4266 89.2606 91.6966L89.2806 91.7266C89.4546 91.9986 89.4086 92.3386 89.1766 92.4866L89.1666 92.4946C89.1546 92.5026 89.1386 92.4986 89.1306 92.4866L88.5086 91.5166Z" fill="white"/>
  <path d="M80.194 114.07C82.182 114.448 83.718 112.466 81.618 111.226C80.87 110.784 80.114 110.342 79.35 109.904C78.074 109.174 77.904 107.29 78.75 106.182C79.876 104.706 82.218 104.886 83.668 105.786C83.734 105.826 83.75 105.88 83.718 105.95L83.412 106.608C83.386 106.662 83.322 106.686 83.268 106.662C82.076 106.13 79.516 105.896 79.906 107.98C79.962 108.278 80.226 108.584 80.696 108.898C82.232 109.924 84.742 110.524 84.288 112.904C83.732 115.824 80.06 115.746 78.17 114.422C78.126 114.392 78.116 114.352 78.14 114.302L78.476 113.62C78.498 113.576 78.552 113.556 78.598 113.578C79.024 113.786 79.556 113.95 80.194 114.07Z" fill="#D8DBFF"/>
  <path d="M91.5472 114.601L93.1252 115.385C93.1992 115.423 93.2152 115.477 93.1732 115.549L92.6452 116.443C92.5992 116.519 92.5392 116.535 92.4632 116.489L90.2932 115.215C90.2412 115.185 90.1772 115.175 90.1172 115.189C85.5292 116.231 84.5012 112.035 85.2072 108.635C85.4572 107.429 85.9292 106.531 86.6192 105.943C87.9932 104.775 90.5812 104.729 91.8952 106.147C93.0032 107.345 93.0672 109.251 92.9532 110.899C92.8512 112.369 92.3732 113.559 91.5232 114.469C91.4732 114.523 91.4812 114.567 91.5472 114.601ZM90.3492 113.657C91.6712 112.429 91.7772 107.759 90.2452 106.671C89.4032 106.073 88.0652 106.209 87.4212 107.029C86.6132 108.057 86.6172 110.251 86.8012 111.475C86.9772 112.659 87.2912 113.737 88.4912 114.041C89.2492 114.231 89.8692 114.103 90.3492 113.657Z" fill="#D8DBFF"/>
  <path d="M67.7084 107.43C67.7084 107.404 67.6844 107.384 67.6564 107.386C67.6364 107.386 67.6184 107.402 67.6144 107.42L65.1684 115.096C65.1464 115.162 65.1024 115.196 65.0324 115.196H64.0024C63.9164 115.196 63.8604 115.156 63.8344 115.074L61.4004 107.392C61.3884 107.362 61.3564 107.346 61.3264 107.358C61.3064 107.366 61.2904 107.384 61.2884 107.406L60.9524 115.122C60.9524 115.172 60.9244 115.196 60.8744 115.196H59.6044C59.5204 115.198 59.4804 115.156 59.4824 115.07C59.5644 111.808 59.8024 108.558 60.1964 105.318C60.2044 105.252 60.2404 105.22 60.3064 105.22H62.1624C62.2324 105.216 62.2764 105.25 62.2984 105.316L64.6164 112.392C64.6264 112.424 64.6624 112.442 64.6944 112.432C64.7124 112.426 64.7284 112.412 64.7344 112.392L67.0584 105.334C67.0804 105.266 67.1424 105.22 67.2144 105.22H68.9464C69.0244 105.218 69.0664 105.256 69.0744 105.332C69.4684 108.566 69.7204 111.812 69.8304 115.07C69.8324 115.156 69.7924 115.198 69.7084 115.198H68.2904C68.2084 115.198 68.1644 115.156 68.1624 115.074C68.1124 112.52 67.9624 109.972 67.7084 107.43Z" fill="white"/>
  <path d="M99.1928 114.056L99.2008 115.098C99.2008 115.154 99.1568 115.198 99.1008 115.198H94.5608C94.5048 115.198 94.4608 115.154 94.4608 115.098V105.312C94.4628 105.256 94.5068 105.212 94.5628 105.212L95.9528 105.226C96.0088 105.226 96.0528 105.27 96.0528 105.326V113.858C96.0528 113.914 96.0968 113.958 96.1528 113.958H99.0928C99.1488 113.958 99.1928 114 99.1928 114.056Z" fill="#D8DBFF"/>
  <path d="M90.3428 113.654C89.8628 114.1 89.2428 114.228 88.4848 114.038C87.2848 113.734 86.9708 112.656 86.7948 111.472C86.6108 110.248 86.6068 108.054 87.4148 107.026C88.0588 106.206 89.3968 106.07 90.2388 106.668C91.7708 107.756 91.6648 112.426 90.3428 113.654Z" fill="#0D18A0"/>
  <path d="M74.03 113.949C74.724 111.997 75.198 109.991 75.45 107.933C75.458 107.871 75.492 107.839 75.554 107.839H76.936C76.998 107.841 77.026 107.871 77.016 107.933C76.608 110.337 74.774 119.209 70.612 117.597C70.542 117.571 70.506 117.519 70.506 117.443V116.795C70.508 116.723 70.544 116.689 70.616 116.693C72.536 116.783 73.226 115.947 72.652 114.091C72.02 112.045 71.37 110.007 70.7 107.975C70.67 107.889 70.7 107.845 70.794 107.843L72.156 107.837C72.242 107.837 72.3 107.879 72.326 107.961C72.852 109.611 73.354 111.267 73.834 112.925C73.93 113.255 73.95 113.601 73.968 113.939C73.974 114.045 73.994 114.049 74.03 113.949Z" fill="white"/>
  <path d="M100.603 114.339C100.603 114.573 100.597 114.803 100.587 115.033C100.583 115.107 100.561 115.157 100.523 115.181C100.499 115.195 100.473 115.201 100.445 115.199C100.367 115.193 100.329 115.153 100.331 115.075L100.351 114.361C100.351 114.299 100.315 114.245 100.259 114.223L100.009 114.125C99.965 114.107 99.945 114.059 99.963 114.015C99.975 113.983 100.007 113.961 100.041 113.963L100.867 113.969C100.913 113.967 100.951 114.001 100.953 114.047C100.955 114.087 100.927 114.123 100.889 114.131L100.731 114.173C100.645 114.195 100.603 114.251 100.603 114.339Z" fill="#D8DBFF"/>
  <path d="M102.251 114.506L102.009 115.14C101.989 115.196 101.927 115.226 101.871 115.206C101.841 115.196 101.819 115.174 101.807 115.144L101.527 114.48C101.521 114.466 101.507 114.46 101.493 114.464C101.489 114.464 101.487 114.466 101.485 114.47L101.441 114.514C101.441 114.514 101.431 114.53 101.433 114.54C101.487 114.762 101.469 114.978 101.379 115.188C101.361 115.234 101.311 115.256 101.265 115.238C101.231 115.224 101.207 115.19 101.209 115.154V114.08C101.209 113.978 101.291 113.892 101.393 113.89C101.469 113.89 101.539 113.934 101.569 114.006L101.869 114.702C101.897 114.768 101.923 114.766 101.947 114.702L102.173 114.078C102.215 113.962 102.343 113.904 102.459 113.946C102.547 113.978 102.607 114.064 102.605 114.158L102.589 115.074C102.589 115.138 102.537 115.188 102.473 115.188C102.449 115.188 102.427 115.18 102.407 115.166C102.391 115.154 102.375 115.144 102.359 115.136C102.341 115.126 102.333 115.11 102.333 115.088L102.351 114.528C102.351 114.5 102.327 114.476 102.299 114.476C102.279 114.476 102.259 114.488 102.251 114.508V114.506Z" fill="#D8DBFF"/>
  <g filter="url(#filter1_f_44_124)">
    <circle cx="132.67" cy="62.2677" r="1.35534" transform="rotate(-180 132.67 62.2677)" fill="white"/>
  </g>
  <g filter="url(#filter2_f_44_124)">
    <circle cx="99.4727" cy="46.6798" r="0.677668" transform="rotate(-180 99.4727 46.6798)" fill="white"/>
  </g>
  <g filter="url(#filter3_f_44_124)">
    <circle cx="141.488" cy="33.129" r="0.677668" transform="rotate(-180 141.488 33.129)" fill="white"/>
  </g>
  <defs>
    <filter id="filter0_d_44_124" x="0.558903" y="29.0913" width="163.357" height="163.357" filterUnits="userSpaceOnUse" color-interpolation-filters="sRGB">
      <feFlood flood-opacity="0" result="BackgroundImageFix"/>
      <feColorMatrix in="SourceAlpha" type="matrix" values="0 0 0 0 0 0 0 0 0 0 0 0 0 0 0 0 0 0 127 0" result="hardAlpha"/>
      <feOffset dy="4.52875"/>
      <feGaussianBlur stdDeviation="20.46"/>
      <feComposite in2="hardAlpha" operator="out"/>
      <feColorMatrix type="matrix" values="0 0 0 0 0.238875 0 0 0 0 0.23982 0 0 0 0 0.2625 0 0 0 0.15 0"/>
      <feBlend mode="normal" in2="BackgroundImageFix" result="effect1_dropShadow_44_124"/>
      <feBlend mode="normal" in="SourceGraphic" in2="effect1_dropShadow_44_124" result="shape"/>
    </filter>
    <filter id="filter1_f_44_124" x="130.773" y="60.3702" width="3.79496" height="3.79496" filterUnits="userSpaceOnUse" color-interpolation-filters="sRGB">
      <feFlood flood-opacity="0" result="BackgroundImageFix"/>
      <feBlend mode="normal" in="SourceGraphic" in2="BackgroundImageFix" result="shape"/>
      <feGaussianBlur stdDeviation="0.271067" result="effect1_foregroundBlur_44_124"/>
    </filter>
    <filter id="filter2_f_44_124" x="98.2529" y="45.4599" width="2.43962" height="2.43962" filterUnits="userSpaceOnUse" color-interpolation-filters="sRGB">
      <feFlood flood-opacity="0" result="BackgroundImageFix"/>
      <feBlend mode="normal" in="SourceGraphic" in2="BackgroundImageFix" result="shape"/>
      <feGaussianBlur stdDeviation="0.271067" result="effect1_foregroundBlur_44_124"/>
    </filter>
    <filter id="filter3_f_44_124" x="140.269" y="31.9092" width="2.43962" height="2.43962" filterUnits="userSpaceOnUse" color-interpolation-filters="sRGB">
      <feFlood flood-opacity="0" result="BackgroundImageFix"/>
      <feBlend mode="normal" in="SourceGraphic" in2="BackgroundImageFix" result="shape"/>
      <feGaussianBlur stdDeviation="0.271067" result="effect1_foregroundBlur_44_124"/>
    </filter>
    <linearGradient id="paint0_linear_44_124" x1="74.741" y1="117.528" x2="131.084" y2="30.1963" gradientUnits="userSpaceOnUse">
      <stop stop-color="#D9D9D9"/>
      <stop offset="1" stop-color="#D9D9D9" stop-opacity="0"/>
    </linearGradient>
    <linearGradient id="paint1_linear_44_124" x1="95.8438" y1="118.602" x2="151.128" y2="53.0486" gradientUnits="userSpaceOnUse">
      <stop stop-color="#D9D9D9"/>
      <stop offset="1" stop-color="#D9D9D9" stop-opacity="0"/>
    </linearGradient>
  </defs>
</svg>