<svg width="860" height="70" viewBox="0 0 860 70" fill="none" xmlns="http://www.w3.org/2000/svg">
<path d="M858.397 34.9C858.397 35.6583 857.915 36.5874 856.536 37.6714C855.174 38.742 853.089 39.8385 850.263 40.9409C844.621 43.1418 836.248 45.2829 825.394 47.3313C803.7 51.4255 772.278 55.1177 733.412 58.2202C655.689 64.4245 548.299 68.263 429.666 68.263C311.034 68.263 203.644 64.4245 125.921 58.2202C87.0552 55.1177 55.6325 51.4255 33.9392 47.3313C23.0853 45.2829 14.7116 43.1418 9.06973 40.9409C6.24379 39.8385 4.15894 38.742 2.79687 37.6714C1.41777 36.5874 0.9359 35.6583 0.9359 34.9C0.9359 34.1417 1.41777 33.2126 2.79687 32.1286C4.15894 31.058 6.24379 29.9615 9.06973 28.8591C14.7116 26.6582 23.0853 24.5172 33.9392 22.4687C55.6325 18.3745 87.0552 14.6823 125.921 11.5798C203.644 5.37553 311.034 1.53697 429.666 1.53697C548.299 1.53697 655.689 5.37553 733.412 11.5798C772.278 14.6823 803.7 18.3745 825.394 22.4687C836.248 24.5172 844.621 26.6582 850.263 28.8591C853.089 29.9615 855.174 31.058 856.536 32.1286C857.915 33.2126 858.397 34.1417 858.397 34.9Z" fill="url(#paint0_linear_44_84)" stroke="#454DC0" stroke-width="1.87082"/>
<defs>
<linearGradient id="paint0_linear_44_84" x1="532.92" y1="0.601566" x2="534.321" y2="160.272" gradientUnits="userSpaceOnUse">
<stop stop-color="#020415"/>
<stop offset="1" stop-color="#020310"/>
</linearGradient>
</defs>
</svg>
