<svg xmlns="http://www.w3.org/2000/svg" width="164" height="199" viewBox="0 0 164 199" fill="none">
  <path d="M4.91406 41.0469C26.8878 61.3303 39.8937 106.311 43.6499 126.266L120.417 97.3898C110.275 74.2892 53.7446 22.9702 26.747 0.198212L4.91406 41.0469Z" fill="url(#paint0_linear_44_112)" fill-opacity="0.32"/>
  <path d="M4.91406 41.0469C26.8878 61.3303 39.8937 106.311 43.6499 126.266L90.8371 106.546C80.6954 83.445 45.9975 37.7602 18.9998 14.9882L4.91406 41.0469Z" fill="url(#paint1_linear_44_112)" fill-opacity="0.32"/>
  <g filter="url(#filter0_d_44_112)">
    <circle cx="40.7587" cy="40.7587" r="40.7587" transform="matrix(-4.37114e-08 -1 -1 4.37114e-08 123.002 152.998)" fill="white"/>
  </g>
  <path d="M68.0438 84.998H70.08C72.4286 85.3688 74.594 86.4886 76.5219 87.8523C78.1076 88.9736 79.5918 90.2213 80.9751 91.5946C80.989 91.6081 81.0028 91.6081 81.0167 91.5946C82.919 89.7275 84.9974 88.0156 87.3107 86.6879C88.7645 85.8534 90.3016 85.2495 91.9224 84.998H93.9587C97.9623 85.6842 99.3403 89.4798 99.4823 93.0852C99.596 95.9915 99.1427 98.8973 98.4295 101.708C98.4252 101.724 98.4348 101.74 98.4503 101.744C99.7919 102.125 101.11 102.577 102.403 103.099C104.403 103.904 106.358 104.943 108.019 106.336C109.333 107.437 110.519 108.972 110.873 110.654C111.575 113.988 109.259 116.684 106.69 118.394C104.205 120.048 101.323 121.186 98.462 121.973C98.4375 121.98 98.4225 122.006 98.4289 122.031C99.1721 124.908 99.6286 127.932 99.4663 130.911C99.2735 134.454 97.8417 138.081 93.9389 138.729H91.915C89.8221 138.398 87.7939 137.442 86.079 136.291C84.2579 135.068 82.5741 133.681 81.0274 132.132C81.013 132.117 80.9895 132.117 80.9745 132.132C79.0264 134.063 76.854 135.832 74.4526 137.164C73.0709 137.93 71.6326 138.491 70.0725 138.729H68.0529C64.3589 138.14 62.8501 134.771 62.5661 131.408C62.2981 128.238 62.809 125.082 63.5629 122.014C63.5677 121.995 63.5607 121.983 63.542 121.978C61.1198 121.294 58.7429 120.397 56.5433 119.163C54.9694 118.279 53.4596 117.14 52.3619 115.686C51.0405 113.934 50.5958 111.798 51.4062 109.727C52.5221 106.878 55.6368 104.877 58.2982 103.66C59.9949 102.884 61.7412 102.249 63.5367 101.755C63.5591 101.749 63.5725 101.726 63.5666 101.704C63.1357 100.036 62.8245 98.3412 62.6334 96.6174C62.1603 92.3496 62.5944 85.9126 68.0438 84.998ZM67.725 87.784C65.2281 88.7592 65.0044 92.63 65.109 94.818C65.211 96.9345 65.5761 99.0209 66.093 101.072C66.0967 101.086 66.1052 101.092 66.1196 101.088C68.7442 100.497 71.3977 100.102 74.0762 99.8419C74.0949 99.8403 74.1098 99.8311 74.1205 99.8155C75.665 97.6066 77.343 95.5063 79.1556 93.5145C79.1689 93.5 79.1684 93.4854 79.1545 93.472C77.209 91.5393 74.9881 89.7339 72.5263 88.5126C71.159 87.834 69.2263 87.1978 67.725 87.784ZM96.5934 97.6851C97.068 94.6777 97.6543 86.9146 92.3693 87.5992C90.5947 87.8286 88.9364 88.6829 87.4661 89.6711C85.8046 90.7876 84.2628 92.0546 82.841 93.4726C82.8277 93.486 82.8271 93.5 82.8399 93.5145C84.6525 95.5074 86.3316 97.6093 87.8766 99.8193C87.8873 99.8338 87.9033 99.8435 87.9215 99.8451C90.5968 100.085 93.2454 100.498 95.8673 101.083C95.886 101.087 95.8978 101.08 95.9026 101.062C96.1765 99.9966 96.4066 98.8709 96.5934 97.6851ZM77.5416 99.6017C79.84 99.5044 82.1619 99.4824 84.4576 99.6054C84.4816 99.6065 84.4865 99.5974 84.472 99.5786C83.3861 98.1316 82.2356 96.7383 81.0199 95.3999C81.0055 95.3838 80.9906 95.3838 80.9756 95.3999C79.761 96.7367 78.6115 98.1278 77.5272 99.5732C77.5123 99.5931 77.5171 99.6028 77.5416 99.6017ZM85.9958 102.32C82.4716 102.085 78.9959 102.095 75.5689 102.35C75.5502 102.351 75.5353 102.36 75.5246 102.375C73.4889 105.391 71.6817 108.539 70.104 111.822C70.0912 111.848 70.0912 111.878 70.104 111.905C71.6817 115.187 73.4889 118.336 75.5251 121.352C75.5348 121.367 75.5502 121.376 75.5673 121.377C79.1871 121.644 82.8068 121.645 86.4271 121.378C86.4448 121.377 86.4581 121.369 86.4677 121.354C88.5077 118.335 90.317 115.181 91.8963 111.893C91.9054 111.874 91.9054 111.852 91.8963 111.833C90.317 108.546 88.5082 105.393 86.4693 102.374C86.4576 102.356 86.4415 102.347 86.4213 102.346C86.3348 102.341 86.1928 102.333 85.9958 102.32ZM72.1617 102.694C70.3737 102.907 68.5232 103.233 66.8425 103.615C66.8212 103.62 66.8137 103.634 66.8206 103.655C67.3636 105.381 67.9856 107.078 68.6871 108.745C68.6967 108.768 68.7074 108.769 68.7186 108.747C69.7832 106.686 70.9358 104.677 72.1771 102.719C72.1894 102.7 72.1846 102.692 72.1617 102.694ZM95.1509 103.613C93.4574 103.228 91.609 102.907 89.8344 102.692C89.8098 102.689 89.804 102.698 89.8173 102.719C91.0586 104.677 92.2118 106.686 93.2758 108.747C93.2871 108.768 93.2972 108.768 93.3063 108.746C94.0089 107.078 94.6314 105.38 95.1738 103.653C95.1808 103.632 95.1727 103.618 95.1509 103.613ZM108.211 112.913C109.113 110.309 106.386 108.146 104.486 107.031C102.391 105.801 100.074 104.922 97.7407 104.273C97.7242 104.268 97.7135 104.274 97.7087 104.29C96.902 106.863 95.9346 109.374 94.8076 111.821C94.7953 111.848 94.7953 111.878 94.8076 111.905C95.9346 114.353 96.902 116.863 97.7087 119.437C97.7135 119.452 97.7242 119.458 97.7397 119.453C99.3243 119.016 100.867 118.462 102.369 117.792C104.112 117.014 105.852 115.996 107.164 114.584C107.663 114.046 108.012 113.49 108.211 112.913ZM53.7409 110.961C52.9615 113.457 55.6282 115.581 57.4456 116.652C59.5795 117.909 61.9281 118.797 64.2505 119.457C64.2676 119.462 64.2788 119.456 64.2841 119.439C65.093 116.861 66.062 114.347 67.1912 111.894C67.2002 111.874 67.2002 111.851 67.1912 111.831C66.0636 109.383 65.0962 106.873 64.2884 104.3C64.282 104.28 64.2681 104.273 64.2473 104.278C62.258 104.82 60.3435 105.558 58.5032 106.49C56.7077 107.4 54.3768 108.923 53.7409 110.961ZM66.842 120.111C68.5237 120.492 70.3945 120.825 72.1568 121.03C72.1819 121.033 72.1873 121.024 72.1739 121.002C70.9337 119.047 69.7826 117.039 68.7197 114.981C68.7079 114.958 68.6973 114.958 68.6871 114.982C67.9856 116.65 67.3631 118.346 66.8201 120.073C66.8132 120.094 66.8201 120.107 66.842 120.111ZM89.8333 121.034C91.6106 120.819 93.4413 120.502 95.1514 120.113C95.1733 120.108 95.1808 120.095 95.1738 120.073C94.6309 118.346 94.0083 116.649 93.3068 114.981C93.2972 114.958 93.2865 114.958 93.2753 114.98C92.2118 117.041 91.0591 119.051 89.8173 121.009C89.8045 121.029 89.8098 121.037 89.8333 121.034ZM65.2911 126.794C65.0481 128.648 64.9873 130.63 65.3524 132.483C65.4827 133.142 65.7086 133.775 66.0305 134.381C68.0496 138.185 73.3068 135.018 75.5428 133.359C76.8177 132.413 78.0216 131.378 79.1545 130.255C79.1689 130.241 79.1689 130.226 79.1556 130.212C77.3452 128.222 75.6682 126.124 74.1248 123.917C74.1093 123.895 74.0852 123.881 74.0591 123.879C71.3891 123.637 68.7453 123.225 66.1282 122.642C66.1132 122.638 66.0983 122.647 66.0946 122.662C65.7417 124.025 65.4736 125.402 65.2911 126.794ZM95.8753 122.64C93.2529 123.232 90.5963 123.632 87.9183 123.886C87.8991 123.887 87.8841 123.896 87.8729 123.912C86.3289 126.121 84.6509 128.221 82.8389 130.212C82.8255 130.227 82.8261 130.241 82.8399 130.255C84.6589 132.05 86.6754 133.706 88.9193 134.934C90.2006 135.636 91.8007 136.253 93.2636 136.162C96.1674 135.98 96.8337 132.612 96.8897 130.306C96.9522 127.73 96.5379 125.143 95.8983 122.654C95.8956 122.644 95.8855 122.637 95.8753 122.64ZM78.5352 124.156C78.2058 124.145 77.8748 124.135 77.5411 124.128C77.5187 124.128 77.5144 124.136 77.5278 124.155C78.6126 125.6 79.7621 126.99 80.9767 128.326C80.9906 128.342 81.0044 128.342 81.0189 128.326C82.2356 126.988 83.3872 125.594 84.4731 124.146C84.4843 124.131 84.4806 124.124 84.4619 124.124C82.4881 124.212 80.5122 124.222 78.5352 124.156Z" fill="#0D18A0"/>
  <path d="M81.4477 117.237C84.4152 117.237 86.8209 114.831 86.8209 111.864C86.8209 108.896 84.4152 106.491 81.4477 106.491C78.4802 106.491 76.0746 108.896 76.0746 111.864C76.0746 114.831 78.4802 117.237 81.4477 117.237Z" fill="#0D18A0"/>
  <g filter="url(#filter1_f_44_112)">
    <circle cx="1.35534" cy="1.35534" r="1.35534" transform="matrix(1 0 0 -1 37.6172 69.5449)" fill="white"/>
  </g>
  <g filter="url(#filter2_f_44_112)">
    <circle cx="0.677668" cy="0.677668" r="0.677668" transform="matrix(1 0 0 -1 71.5 53.2793)" fill="white"/>
  </g>
  <g filter="url(#filter3_f_44_112)">
    <circle cx="32.6933" cy="40.1816" r="0.677668" fill="white"/>
  </g>
  <defs>
    <filter id="filter0_d_44_112" x="0.564396" y="35.0894" width="163.357" height="163.357" filterUnits="userSpaceOnUse" color-interpolation-filters="sRGB">
      <feFlood flood-opacity="0" result="BackgroundImageFix"/>
      <feColorMatrix in="SourceAlpha" type="matrix" values="0 0 0 0 0 0 0 0 0 0 0 0 0 0 0 0 0 0 127 0" result="hardAlpha"/>
      <feOffset dy="4.52875"/>
      <feGaussianBlur stdDeviation="20.46"/>
      <feComposite in2="hardAlpha" operator="out"/>
      <feColorMatrix type="matrix" values="0 0 0 0 0.238875 0 0 0 0 0.23982 0 0 0 0 0.2625 0 0 0 0.15 0"/>
      <feBlend mode="normal" in2="BackgroundImageFix" result="effect1_dropShadow_44_112"/>
      <feBlend mode="normal" in="SourceGraphic" in2="effect1_dropShadow_44_112" result="shape"/>
    </filter>
    <filter id="filter1_f_44_112" x="37.0751" y="66.2921" width="3.79496" height="3.79496" filterUnits="userSpaceOnUse" color-interpolation-filters="sRGB">
      <feFlood flood-opacity="0" result="BackgroundImageFix"/>
      <feBlend mode="normal" in="SourceGraphic" in2="BackgroundImageFix" result="shape"/>
      <feGaussianBlur stdDeviation="0.271067" result="effect1_foregroundBlur_44_112"/>
    </filter>
    <filter id="filter2_f_44_112" x="70.9579" y="51.3818" width="2.43962" height="2.43962" filterUnits="userSpaceOnUse" color-interpolation-filters="sRGB">
      <feFlood flood-opacity="0" result="BackgroundImageFix"/>
      <feBlend mode="normal" in="SourceGraphic" in2="BackgroundImageFix" result="shape"/>
      <feGaussianBlur stdDeviation="0.271067" result="effect1_foregroundBlur_44_112"/>
    </filter>
    <filter id="filter3_f_44_112" x="31.4735" y="38.9618" width="2.43962" height="2.43962" filterUnits="userSpaceOnUse" color-interpolation-filters="sRGB">
      <feFlood flood-opacity="0" result="BackgroundImageFix"/>
      <feBlend mode="normal" in="SourceGraphic" in2="BackgroundImageFix" result="shape"/>
      <feGaussianBlur stdDeviation="0.271067" result="effect1_foregroundBlur_44_112"/>
    </filter>
    <linearGradient id="paint0_linear_44_112" x1="87.3157" y1="117.11" x2="30.9727" y2="29.7783" gradientUnits="userSpaceOnUse">
      <stop stop-color="#D9D9D9"/>
      <stop offset="1" stop-color="#D9D9D9" stop-opacity="0"/>
    </linearGradient>
    <linearGradient id="paint1_linear_44_112" x1="66.2128" y1="118.184" x2="10.9291" y2="52.6306" gradientUnits="userSpaceOnUse">
      <stop stop-color="#D9D9D9"/>
      <stop offset="1" stop-color="#D9D9D9" stop-opacity="0"/>
    </linearGradient>
  </defs>
</svg>