<svg width="82" height="37" viewBox="0 0 82 37" fill="none" xmlns="http://www.w3.org/2000/svg">
<g clip-path="url(#clip0_3_277)">
<path d="M29.7 21.1296C29.7 21.9006 29.0196 22.3536 27.8862 22.3536C26.4737 22.3089 25.1234 21.7624 24.0774 20.8122L24.0318 20.8578V20.8122C23.0346 21.7188 22.1273 22.3086 20.6765 22.3086C18.5003 22.3086 17.0039 20.4948 17.0039 18.3186V18.273C17.0039 16.0968 18.5453 14.3286 20.6765 14.3286C21.5016 14.3394 22.3055 14.5916 22.989 15.054C22.9495 15.2478 22.9342 15.4457 22.9434 15.6432V15.6888C22.9434 18.228 24.5754 18.9078 27.1602 19.5888C29.2896 20.0868 29.7 20.4492 29.7 21.1296ZM36 0.499756V36.4999H-0.00012207V0.499756H36ZM32.4636 20.9028C32.4636 18.6828 31.0128 17.7744 28.4286 17.094C26.2524 16.5498 25.7082 16.278 25.7082 15.414V15.3684C25.7082 14.7336 26.2524 14.28 27.3402 14.28C28.5463 14.3592 29.7001 14.8018 30.6498 15.5496L32.1 13.467C30.7661 12.3906 29.0984 11.8134 27.3846 11.835C26.3131 11.7849 25.257 12.1043 24.393 12.7398C23.2638 12.0871 21.9768 11.7577 20.6729 11.7876C19.0619 11.7593 17.4967 12.3242 16.2749 13.3746V12.0162H13.5089V19.8162L7.6199 11.9706H5.03269V24.666H7.7999V16.5954L13.9649 24.666H16.3199V23.3514C17.5049 24.3667 19.0196 24.9148 20.5799 24.8928C21.8359 24.9378 23.0786 24.6233 24.162 23.9862C25.301 24.5644 26.5626 24.8597 27.84 24.8472C30.5604 24.8472 32.5098 23.4414 32.4648 20.9028H32.4636ZM42.393 1.13456H41.1234V35.8651H42.393V1.13456ZM47.7882 2.71976H46.836V9.88379H47.7882V5.21517L48.831 8.47978V9.88558H49.7832V2.71976H48.831V6.16737L47.7882 2.71976ZM52.3674 9.88379V2.71976H51.4158V9.88379H52.3674ZM56.2213 6.16377C56.4117 6.14655 56.5882 6.05704 56.7147 5.91364C56.8411 5.77023 56.9078 5.58384 56.9011 5.39277V4.03617C56.9011 3.17456 56.4931 2.72156 55.6315 2.72156H54.0001V9.88558H55.9495C56.0745 9.90373 56.202 9.89699 56.3244 9.86577C56.4469 9.83454 56.562 9.77944 56.6631 9.70363C56.7643 9.62781 56.8494 9.53278 56.9137 9.42397C56.978 9.31517 57.0202 9.19473 57.0379 9.06958V6.98338C57.0379 6.57537 56.7661 6.30297 56.2669 6.16737H56.2201L56.2213 6.16377ZM54.9523 3.58317H55.5415C55.8133 3.58317 55.9495 3.76317 55.9495 4.08177V5.21517C55.9495 5.57517 55.7695 5.71377 55.4053 5.71377H54.9517L54.9523 3.58317ZM54.9523 6.62097H55.4965C55.8565 6.62097 56.0857 6.80098 56.0857 7.11958V8.70658C56.0857 8.93338 55.9495 9.02398 55.7257 9.02398H54.9973V6.61977L54.9523 6.62097ZM60.8011 6.16737C60.9916 6.1503 61.1683 6.06085 61.2949 5.91743C61.4214 5.77401 61.4882 5.58753 61.4815 5.39637V4.03617C61.4815 3.17456 61.0735 2.72156 60.2119 2.72156H58.5799V9.88558H60.5293C60.6544 9.90373 60.7818 9.89699 60.9043 9.86577C61.0267 9.83454 61.1418 9.77944 61.2429 9.70363C61.3441 9.62781 61.4292 9.53278 61.4935 9.42397C61.5578 9.31517 61.6 9.19473 61.6177 9.06958V6.98338C61.6177 6.57537 61.3459 6.30297 60.8467 6.16737H60.8011ZM59.5315 3.62817H60.1207C60.3925 3.62817 60.5287 3.80817 60.5287 4.12677V5.26077C60.5287 5.62077 60.3487 5.75937 59.9845 5.75937H59.5309L59.5315 3.62817ZM59.5315 6.62038H60.0757C60.4357 6.62038 60.6649 6.80038 60.6649 7.11898V8.70598C60.6649 8.93278 60.5287 9.02338 60.3049 9.02338H59.5771V6.61977L59.5315 6.62038ZM65.4259 9.02338H64.1113V2.71976H63.1591V9.88379H65.4259V9.02338ZM69.0985 9.88498V9.02398H67.6927V6.61977H68.9167V5.75937H67.6471V3.58317H69.0529V2.71976H66.6955V9.88379L69.0985 9.88498ZM48.7404 20.1798V20.5878C48.7404 20.8596 48.6042 20.9958 48.3804 20.9958H48.1536C47.8818 20.9958 47.7936 20.8596 47.7936 20.5878V16.0062C47.7936 15.7344 47.9298 15.5982 48.1536 15.5982H48.3336C48.3821 15.5839 48.4333 15.5813 48.4829 15.5907C48.5326 15.6 48.5793 15.6211 48.6191 15.6521C48.659 15.6832 48.6909 15.7232 48.7122 15.7691C48.7335 15.8149 48.7436 15.8651 48.7416 15.9156V16.7316H49.6938V15.9156C49.6938 15.0996 49.3338 14.6916 48.5604 14.6916H47.9244C47.1534 14.6916 46.791 15.0996 46.791 15.9156V20.631C46.791 21.447 47.151 21.855 47.9244 21.855H48.5136C49.2846 21.855 49.647 21.447 49.647 20.631V20.1798H48.7404ZM53.184 21.8598C53.3474 21.8787 53.5129 21.8597 53.6677 21.8041C53.8225 21.7486 53.9624 21.6581 54.0765 21.5396C54.1906 21.4212 54.2758 21.278 54.3255 21.1213C54.3752 20.9645 54.3881 20.7984 54.3631 20.6358V15.9156C54.3631 15.0996 54.0031 14.6916 53.2297 14.6916H52.32C51.549 14.6916 51.1866 15.0996 51.1866 15.9156V20.631C51.1866 21.447 51.5466 21.855 52.3656 21.855L53.184 21.8598ZM52.0956 20.5902V16.0062C52.0889 15.9585 52.0919 15.9099 52.1043 15.8633C52.1167 15.8167 52.1384 15.7731 52.168 15.735C52.1976 15.697 52.2345 15.6653 52.2766 15.6418C52.3187 15.6182 52.3651 15.6034 52.413 15.5982H52.9572C53.0057 15.5839 53.0569 15.5813 53.1065 15.5907C53.1562 15.6 53.2029 15.6211 53.2428 15.6521C53.2826 15.6832 53.3145 15.7232 53.3359 15.7691C53.3572 15.8149 53.3672 15.8651 53.3652 15.9156V20.5854C53.3652 20.8572 53.229 20.9934 53.0052 20.9934H52.5066C52.4558 21.005 52.4031 21.0057 52.3519 20.9957C52.3008 20.9857 52.2523 20.9651 52.2096 20.9352C52.1668 20.9053 52.1308 20.8668 52.1039 20.8221C52.0769 20.7775 52.0596 20.7277 52.053 20.676C52.0986 20.676 52.0986 20.6304 52.0986 20.5854L52.0956 20.5902ZM56.9923 14.6958H55.9495V21.8598H56.9017L56.8111 17.19L57.5365 20.5908H58.2601L58.9405 17.19L58.8499 21.8598H59.8021V14.691H58.7611L57.8539 18.9078L56.9923 14.6958ZM61.4809 21.8598H62.4331V19.2708H63.2491C64.0201 19.2708 64.3825 18.8628 64.3825 18.0468V15.9156C64.3825 15.0996 64.0225 14.6916 63.2035 14.6916H61.4353L61.4809 21.8598ZM62.4331 15.5598H62.9773C63.0257 15.5455 63.0769 15.5429 63.1266 15.5523C63.1762 15.5616 63.2229 15.5827 63.2628 15.6137C63.3027 15.6448 63.3346 15.6848 63.3559 15.7307C63.3772 15.7765 63.3873 15.8267 63.3853 15.8772V17.9628C63.3853 18.2346 63.2491 18.3708 63.0253 18.3708H62.4361V15.5526L62.4331 15.5598ZM68.0101 14.6982V20.502C68.0101 20.8194 67.8739 20.9556 67.6021 20.9556H67.1941C66.9223 20.9556 66.7861 20.8194 66.7861 20.502V14.691H65.8339V20.4948C65.8339 21.4014 66.1939 21.855 66.9673 21.855H67.7833C68.5543 21.855 68.9623 21.4014 68.9623 20.4948V14.691L68.0101 14.6982ZM73.0429 15.5598V14.691H70.2769V15.5526H71.1835V21.8526H72.1357V15.5526L73.0429 15.5598ZM76.7155 21.8598V20.9934H75.3097V18.636H76.5793V17.7288H75.3097V15.5526H76.7155V14.691H74.3581V21.855L76.7155 21.8598ZM78.1663 21.8598H79.1185V18.9534H79.7077L80.3425 21.855H81.2491L80.5693 18.8598C80.9773 18.6798 81.1585 18.3156 81.1585 17.6808V15.9156C81.1585 15.0996 80.7957 14.6916 80.0701 14.6916H78.2101L78.1663 21.8598ZM79.1185 15.5598H79.7533C80.0251 15.5598 80.1613 15.7398 80.1613 16.0584V17.5998C80.1613 17.9598 80.0251 18.0984 79.7533 18.0984H79.1185V15.5598ZM49.602 28.6104V27.885C49.602 27.069 49.242 26.661 48.4686 26.661H47.88C47.109 26.661 46.7466 27.069 46.7466 27.885V29.3358C46.7393 29.4885 46.7546 29.6413 46.7922 29.7894C46.8378 29.88 46.8828 30.0162 46.9722 30.0612C47.1172 30.1618 47.2688 30.2526 47.4258 30.333L48.3324 30.8317C48.423 30.8773 48.5124 30.9679 48.6042 31.0117C48.6544 31.0943 48.6854 31.1872 48.6948 31.2835V32.5075C48.6948 32.7793 48.5586 32.9155 48.3348 32.9155H48.1548C48.1064 32.9298 48.0552 32.9324 48.0056 32.923C47.9559 32.9136 47.9092 32.8926 47.8693 32.8615C47.8294 32.8305 47.7975 32.7904 47.7762 32.7446C47.7549 32.6988 47.7449 32.6485 47.7468 32.5981V32.1019H46.7004V32.4619C46.7004 33.3235 47.0604 33.7765 47.8338 33.7765H48.423C48.5864 33.7954 48.7519 33.7763 48.9067 33.7208C49.0615 33.6652 49.2014 33.5747 49.3155 33.4563C49.4296 33.3378 49.5148 33.1947 49.5645 33.0379C49.6142 32.8811 49.627 32.715 49.602 32.5525V31.0591C49.6202 30.8876 49.5888 30.7145 49.5114 30.5605C49.4629 30.4764 49.4022 30.4 49.3314 30.3336L48.9234 30.0618L48.0168 29.5632C47.9262 29.5176 47.8368 29.427 47.745 29.3832C47.6948 29.3006 47.6639 29.2077 47.6544 29.1114V27.9306C47.6544 27.6588 47.7906 27.477 48.0624 27.477H48.1986C48.2468 27.467 48.2965 27.4675 48.3444 27.4786C48.3924 27.4897 48.4373 27.5111 48.4761 27.5413C48.5149 27.5715 48.5467 27.6098 48.5692 27.6535C48.5918 27.6972 48.6045 27.7453 48.6066 27.7944V28.6104H49.602ZM53.1385 33.8701C53.3018 33.889 53.4673 33.8699 53.6221 33.8144C53.7769 33.7588 53.9168 33.6683 54.0309 33.5499C54.145 33.4314 54.2302 33.2882 54.2799 33.1315C54.3296 32.9747 54.3425 32.8086 54.3175 32.6461V27.885C54.3175 27.069 53.9575 26.661 53.184 26.661H52.2768C51.5058 26.661 51.1434 27.069 51.1434 27.885V32.5999C51.1184 32.7624 51.1313 32.9285 51.181 33.0853C51.2307 33.2421 51.3159 33.3852 51.43 33.5037C51.5441 33.6221 51.684 33.7126 51.8388 33.7682C51.9936 33.8237 52.1591 33.8428 52.3224 33.8239L53.1385 33.8701ZM52.05 32.5555V27.9756C52.0433 27.9279 52.0463 27.8793 52.0587 27.8327C52.0711 27.7861 52.0928 27.7425 52.1224 27.7045C52.152 27.6664 52.1889 27.6347 52.231 27.6112C52.2731 27.5877 52.3195 27.5729 52.3674 27.5676H52.9116C52.9601 27.5533 53.0113 27.5507 53.0609 27.5601C53.1106 27.5695 53.1573 27.5905 53.1972 27.6216C53.237 27.6526 53.2689 27.6927 53.2902 27.7385C53.3116 27.7843 53.3216 27.8346 53.3196 27.885V32.5549C53.3196 32.8267 53.1834 32.9629 52.9596 32.9629H52.461C52.4126 32.9772 52.3614 32.9798 52.3118 32.9704C52.2621 32.961 52.2154 32.9399 52.1755 32.9089C52.1357 32.8779 52.1037 32.8378 52.0824 32.792C52.0611 32.7462 52.0511 32.6959 52.053 32.6455C52.053 32.5999 52.053 32.5999 52.053 32.5549L52.05 32.5555ZM57.8101 32.1955V32.6035C57.8101 32.8753 57.6739 33.0115 57.4501 33.0115H57.2233C56.9515 33.0115 56.8633 32.8753 56.8633 32.6035V27.9756C56.8633 27.7038 56.9995 27.5676 57.2233 27.5676H57.4033C57.4517 27.5533 57.5029 27.5507 57.5525 27.5601C57.6022 27.5695 57.6489 27.5905 57.6888 27.6216C57.7286 27.6526 57.7606 27.6927 57.7819 27.7385C57.8032 27.7843 57.8132 27.8346 57.8113 27.885V28.6998H58.7635V27.8838C58.7635 27.0678 58.4035 26.6598 57.6301 26.6598H56.9923C56.2213 26.6598 55.8589 27.0678 55.8589 27.8838V32.5999C55.8589 33.4159 56.2189 33.8239 56.9923 33.8239H57.6271C58.3981 33.8239 58.7605 33.4159 58.7605 32.5999V32.1463L57.8101 32.1955ZM61.2109 33.8755V26.6598H60.2587V33.8239L61.2109 33.8755ZM65.2459 33.8755V33.0085H63.8401V30.6054H65.1097V29.7444H63.8401V27.5676H65.2459V26.7066H62.8885V33.8707L65.2459 33.8755ZM69.1459 27.5754V26.6598H66.3349V27.5214H67.2415V33.8215H68.1937V27.5214L69.1459 27.5754ZM72.2293 31.2025L73.4083 26.6682H72.4561L71.8201 29.7894H71.7745L71.0479 26.6598H70.0957L71.2747 31.1941V33.8239H72.2269L72.2293 31.2025Z" fill="white"/>
</g>
<defs>
<clipPath id="clip0_3_277">
<rect width="81.2499" height="36.0001" fill="white" transform="translate(0 0.5)"/>
</clipPath>
</defs>
</svg>
