<svg xmlns="http://www.w3.org/2000/svg" width="157" height="160" viewBox="0 0 157 160" fill="none">
  <ellipse cx="78.3857" cy="80.1334" rx="77.8779" ry="79.3404" fill="url(#paint0_linear_1185_13552)"/>
  <defs>
    <linearGradient id="paint0_linear_1185_13552" x1="78.3857" y1="0.792969" x2="78.3857" y2="159.474" gradientUnits="userSpaceOnUse">
      <stop stop-color="#D445EB"/>
      <stop offset="1" stop-color="#8E45EB" stop-opacity="0"/>
    </linearGradient>
  </defs>
  <g transform="translate(50, 55)">
    <path d="M15.3344 14.0708L6.96476 20.3275L15.3344 26.5841C15.612 26.7882 15.8418 27.0396 16.0106 27.3237C16.1793 27.6079 16.2837 27.9192 16.3177 28.2397C16.3517 28.5602 16.3146 28.8836 16.2086 29.1912C16.1026 29.4988 15.9298 29.7845 15.7001 30.0319C15.4704 30.2793 15.1884 30.4834 14.8703 30.6326C14.5523 30.7817 14.2045 30.8728 13.8469 30.9008C13.4894 30.9287 13.1293 30.8929 12.7873 30.7953C12.4452 30.6978 12.1281 30.5405 11.8542 30.3324L0.978666 22.2016C0.672362 21.9727 0.425918 21.6862 0.256793 21.3623C0.087668 21.0384 0 20.6851 0 20.3275C0 19.9698 0.087668 19.6166 0.256793 19.2927C0.425918 18.9688 0.672362 18.6823 0.978666 18.4533L11.8542 10.3226C12.4091 9.91464 13.1211 9.71995 13.8352 9.78091C14.5493 9.84188 15.2076 10.1535 15.6667 10.648C16.1258 11.1425 16.3485 11.7797 16.2863 12.4208C16.224 13.0619 15.8819 13.655 15.3344 14.0708ZM55.2115 18.4533L44.3359 10.3226C44.062 10.1145 43.7449 9.95719 43.4029 9.85964C43.0609 9.76209 42.7008 9.72625 42.3432 9.75419C41.9857 9.78212 41.6379 9.87328 41.3198 10.0224C41.0018 10.1715 40.7198 10.3757 40.4901 10.6231C40.2604 10.8704 40.0876 11.1562 39.9816 11.4638C39.8756 11.7714 39.8385 12.0948 39.8725 12.4153C39.9065 12.7358 40.0109 13.0471 40.1796 13.3313C40.3484 13.6154 40.5782 13.8668 40.8558 14.0708L49.2254 20.3275L40.8558 26.5841C40.5782 26.7882 40.3484 27.0396 40.1796 27.3237C40.0109 27.6079 39.9065 27.9192 39.8725 28.2397C39.8385 28.5602 39.8756 28.8836 39.9816 29.1912C40.0876 29.4988 40.2604 29.7845 40.4901 30.0319C40.7198 30.2793 41.0018 30.4834 41.3198 30.6326C41.6379 30.7817 41.9857 30.8728 42.3432 30.9008C42.7008 30.9287 43.0609 30.8929 43.4029 30.7953C43.7449 30.6978 44.062 30.5405 44.3359 30.3324L55.2115 22.2016C55.5178 21.9727 55.7643 21.6862 55.9334 21.3623C56.1025 21.0384 56.1902 20.6851 56.1902 20.3275C56.1902 19.9698 56.1025 19.6166 55.9334 19.2927C55.7643 18.9688 55.5178 18.6823 55.2115 18.4533ZM36.2744 0.14688C35.9388 0.0373794 35.5824 -0.011729 35.2256 0.00235944C34.8689 0.0164479 34.5187 0.0934574 34.1951 0.228989C33.8715 0.36452 33.5808 0.555918 33.3397 0.79225C33.0985 1.02858 32.9117 1.30522 32.7897 1.60636L18.289 37.3818C18.0432 37.9897 18.0764 38.6602 18.3815 39.246C18.6865 39.8319 19.2384 40.2851 19.9158 40.5061C20.2131 40.6046 20.5277 40.6548 20.8447 40.6544C21.4029 40.6545 21.9477 40.5005 22.4049 40.2132C22.8622 39.9259 23.2097 39.5193 23.4005 39.0486L37.9012 3.27317C38.0233 2.97206 38.078 2.65234 38.0623 2.33226C38.0466 2.01217 37.9608 1.698 37.8097 1.40768C37.6586 1.11737 37.4453 0.856596 37.1819 0.640264C36.9184 0.423932 36.6101 0.256279 36.2744 0.14688Z" fill="url(#paint0_linear_1185_17159)"/>
    <defs>
      <linearGradient id="paint0_linear_1185_17159" x1="28.0951" y1="0" x2="28.0951" y2="40.6544" gradientUnits="userSpaceOnUse">
        <stop stop-color="white"/>
        <stop offset="1" stop-color="#ADADAD"/>
      </linearGradient>
    </defs>
  </g>
</svg>
