<svg width="156" height="160" viewBox="0 0 156 160" fill="none" xmlns="http://www.w3.org/2000/svg">
<ellipse cx="77.8861" cy="80.1334" rx="77.8779" ry="79.3404" fill="url(#paint0_linear_404_55)"/>
<defs>
<linearGradient id="paint0_linear_404_55" x1="77.8861" y1="0.792969" x2="77.8861" y2="159.474" gradientUnits="userSpaceOnUse">
<stop stop-color="#6645EB"/>
<stop offset="1" stop-color="#6645EB" stop-opacity="0"/>
</linearGradient>
</defs>
<g transform="translate(55, 50)">
    <svg xmlns="http://www.w3.org/2000/svg" width="47" height="47" viewBox="0 0 47 47" fill="none">
<g clip-path="url(#clip0_1185_13607)">
<path d="M46.5 10.9893V4.17773C46.5 1.92421 44.6666 0.0908203 42.4131 0.0908203H4.08691C1.83339 0.0908203 0 1.92421 0 4.17773V10.9893H46.5ZM31.4238 5.54004H39.5977C40.35 5.54004 40.96 6.14999 40.96 6.90234C40.96 7.6547 40.35 8.26465 39.5977 8.26465H31.4238C30.6715 8.26465 30.0615 7.6547 30.0615 6.90234C30.0615 6.14999 30.6715 5.54004 31.4238 5.54004ZM17.8008 5.54004C18.5531 5.54004 19.1631 6.14999 19.1631 6.90234C19.1631 7.6547 18.5531 8.26465 17.8008 8.26465C17.0484 8.26465 16.4385 7.6547 16.4385 6.90234C16.4385 6.14999 17.0484 5.54004 17.8008 5.54004ZM12.3516 5.54004C13.1039 5.54004 13.7139 6.14999 13.7139 6.90234C13.7139 7.6547 13.1039 8.26465 12.3516 8.26465C11.5992 8.26465 10.9893 7.6547 10.9893 6.90234C10.9893 6.14999 11.5992 5.54004 12.3516 5.54004ZM6.90234 5.54004C7.6547 5.54004 8.26465 6.14999 8.26465 6.90234C8.26465 7.6547 7.6547 8.26465 6.90234 8.26465C6.14999 8.26465 5.54004 7.6547 5.54004 6.90234C5.54004 6.14999 6.14999 5.54004 6.90234 5.54004Z" fill="white"/>
<path d="M0 13.7139V42.3223C0 44.5758 1.83339 46.4092 4.08691 46.4092H42.4131C44.6666 46.4092 46.5 44.5758 46.5 42.3223V13.7139H0ZM15.9272 33.0847C16.5148 33.5547 16.6099 34.4119 16.1399 34.9994C15.67 35.5868 14.8126 35.6822 14.2252 35.2121L7.41366 29.7629C6.7326 29.2183 6.73215 28.1805 7.41366 27.6354L14.2252 22.1861C14.8124 21.7161 15.6699 21.8113 16.1399 22.3988C16.6099 22.9863 16.5148 23.8437 15.9272 24.3136L10.4454 28.6992L15.9272 33.0847ZM28.5891 19.6997L20.4152 38.772C20.1189 39.4634 19.3182 39.784 18.6264 39.4875C17.9349 39.1911 17.6145 38.3902 17.9109 37.6987L26.0848 18.6264C26.3812 17.9349 27.1821 17.6146 27.8736 17.9109C28.5651 18.2073 28.8855 19.0081 28.5891 19.6997ZM39.0863 29.763L32.2748 35.2122C31.6883 35.6816 30.8308 35.5878 30.36 34.9995C29.8901 34.412 29.9852 33.5547 30.5728 33.0847L36.0546 28.6992L30.5728 24.3138C29.9852 23.8438 29.8901 22.9865 30.36 22.399C30.83 21.8115 31.6873 21.7162 32.2748 22.1863L39.0863 27.6355C39.7674 28.1802 39.7679 29.2179 39.0863 29.763Z" fill="url(#paint0_linear_1185_13607)"/>
</g>
<defs>
<linearGradient id="paint0_linear_1185_13607" x1="23.25" y1="14.5312" x2="23.25" y2="46.4092" gradientUnits="userSpaceOnUse">
<stop stop-color="white"/>
<stop offset="1" stop-color="#ADADAD"/>
</linearGradient>
<clipPath id="clip0_1185_13607">
<rect width="46.5" height="46.5" fill="white"/>
</clipPath>
</defs>
</svg>
  </g>
</svg>
