<svg width="156" height="160" viewBox="0 0 156 160" fill="none" xmlns="http://www.w3.org/2000/svg">
<ellipse cx="77.8861" cy="80.1334" rx="77.8779" ry="79.3404" fill="url(#paint0_linear_401_53)"/>
<path d="M92.7613 67.2045C90.0061 71.7288 88.2559 76.8976 87.7873 82.4003C87.741 82.9444 87.2895 83.3639 86.7434 83.3639H69.738C69.1929 83.3639 68.741 82.946 68.6947 82.4028C68.2469 77.1447 66.6054 71.9419 63.7205 67.2045C63.4938 66.8324 63.5213 66.3581 63.7899 66.0135C69.9915 58.0828 73.3961 53.6779 75.3218 51.2323C75.9373 50.4506 77.1928 50.8865 77.1928 51.8815V66.1594C77.1928 66.5861 76.9325 66.9663 76.5382 67.1299C74.9245 67.7998 73.7864 69.3916 73.7864 71.245C73.7864 73.8067 75.9601 75.8704 78.5599 75.6884C80.7286 75.5365 82.4956 73.7972 82.6791 71.631C82.8498 69.6152 81.6684 67.8462 79.9437 67.1301C79.5495 66.9664 79.2889 66.5862 79.2889 66.1594V51.9229C79.2889 50.9277 80.5457 50.4922 81.1607 51.2747C85.0728 56.2521 92.6615 65.9748 92.6918 66.0135C92.9605 66.3581 92.988 66.8324 92.7613 67.2045ZM87.805 85.3946H68.6768C66.3644 85.3946 64.4843 87.276 64.4843 89.5871V93.1245C64.4843 95.4357 66.3644 97.317 68.6768 97.317H87.805C90.1175 97.317 91.9975 95.4357 91.9975 93.1245V89.5871C91.9975 87.276 90.1175 85.3946 87.805 85.3946ZM106.54 66.0044H106.126C105.715 55.0355 98.9261 45.3948 88.8623 41.2425H100.039C100.47 42.4622 101.636 43.3387 103.003 43.3387C104.736 43.3387 106.147 41.9277 106.147 40.1944C106.147 38.461 104.736 37.05 103.003 37.05C101.636 37.05 100.47 37.9265 100.039 39.1462H84.0056V37.5741C84.0056 35.8407 82.5946 34.4297 80.8612 34.4297H75.6206C73.8873 34.4297 72.4762 35.8407 72.4762 37.5741V39.1462H56.4426C56.0115 37.9265 54.8455 37.05 53.479 37.05C51.7457 37.05 50.3347 38.461 50.3347 40.1944C50.3347 41.9277 51.7457 43.3387 53.479 43.3387C54.8455 43.3387 56.0115 42.4622 56.4426 41.2425H67.6195C57.5553 45.3949 50.7666 55.0359 50.3556 66.0044H49.9416C48.2083 66.0044 46.7972 67.4154 46.7972 69.1487V72.0311C46.7972 73.7644 48.2083 75.1754 49.9416 75.1754H52.8239C54.5573 75.1754 55.9683 73.7644 55.9683 72.0311V69.1487C55.9683 67.4154 54.5573 66.0044 52.8239 66.0044H52.4519C52.917 54.3375 61.1264 44.4668 72.4762 41.8884V42.8147C72.4762 44.548 73.8873 45.959 75.6206 45.959H80.8612C82.5946 45.959 84.0056 44.548 84.0056 42.8147V41.8884C95.3554 44.4668 103.565 54.3375 104.03 66.0044H103.658C101.925 66.0044 100.514 67.4154 100.514 69.1487V72.0311C100.514 73.7644 101.925 75.1754 103.658 75.1754H106.54C108.274 75.1754 109.685 73.7644 109.685 72.0311V69.1487C109.685 67.4154 108.274 66.0044 106.54 66.0044Z" fill="url(#paint1_radial_401_53)"/>
<defs>
<linearGradient id="paint0_linear_401_53" x1="77.8861" y1="0.792969" x2="77.8861" y2="159.474" gradientUnits="userSpaceOnUse">
<stop stop-color="#38BE96"/>
<stop offset="0.600694" stop-color="#1D7259"/>
<stop offset="1" stop-color="#0D4E3B"/>
</linearGradient>
<radialGradient id="paint1_radial_401_53" cx="0" cy="0" r="1" gradientUnits="userSpaceOnUse" gradientTransform="translate(78.2409 65.8734) rotate(90) scale(31.4437)">
<stop stop-color="white"/>
<stop offset="1" stop-color="#ADADAD"/>
</radialGradient>
</defs>
</svg>