<svg width="1440" height="1017" viewBox="0 0 1440 1017" fill="none" xmlns="http://www.w3.org/2000/svg">
<g clip-path="url(#clip0_1_2)">
<mask id="mask0_1_2" style="mask-type:luminance" maskUnits="userSpaceOnUse" x="0" y="0" width="1440" height="1017">
<path d="M1440 0H0V1017H1440V0Z" fill="white"/>
</mask>
<g mask="url(#mask0_1_2)">
<path d="M1440 0H0V1017H1440V0Z" fill="#0D112D"/>
<path d="M1439.12 0.424438H-6.57556V1016.57H1439.12V0.424438Z" stroke="#1F2039" stroke-width="0.848912"/>
<path d="M113.121 0.424438H-6.57556V120.121H113.121V0.424438Z" fill="#030520" stroke="#0F122B" stroke-width="0.848912"/>
<path d="M113.121 120.97H-6.57556V240.667H113.121V120.97Z" fill="#0D112D" stroke="#0F122B" stroke-width="0.848912"/>
<path d="M113.121 241.515H-6.57556V361.212H113.121V241.515Z" fill="#030520" stroke="#0F122B" stroke-width="0.848912"/>
<path d="M113.121 362.061H-6.57556V481.758H113.121V362.061Z" fill="#0D112D" stroke="#0F122B" stroke-width="0.848912"/>
<path d="M113.121 482.606H-6.57556V602.303H113.121V482.606Z" fill="#030520" stroke="#0F122B" stroke-width="0.848912"/>
<path d="M113.121 603.152H-6.57556V722.849H113.121V603.152Z" fill="#030520" stroke="#0F122B" stroke-width="0.848912"/>
<path d="M113.121 723.697H-6.57556V843.394H113.121V723.697Z" fill="#030520" stroke="#0F122B" stroke-width="0.848912"/>
<path d="M113.121 844.243H-6.57556V963.94H113.121V844.243Z" fill="#030520" stroke="#0F122B" stroke-width="0.848912"/>
<path d="M113.121 964.788H-6.57556V1084.48H113.121V964.788Z" fill="#030520" stroke="#0F122B" stroke-width="0.848912"/>
<path d="M233.667 0.424438H113.97V120.121H233.667V0.424438Z" fill="#030520" stroke="#0F122B" stroke-width="0.848912"/>
<path d="M233.667 120.97H113.97V240.667H233.667V120.97Z" fill="#030520" stroke="#0F122B" stroke-width="0.848912"/>
<path d="M233.667 241.515H113.97V361.212H233.667V241.515Z" fill="#030520" stroke="#0F122B" stroke-width="0.848912"/>
<path d="M233.667 362.061H113.97V481.758H233.667V362.061Z" fill="#030520" stroke="#0F122B" stroke-width="0.848912"/>
<path d="M233.667 482.606H113.97V602.303H233.667V482.606Z" fill="#030520" stroke="#0F122B" stroke-width="0.848912"/>
<path d="M233.667 603.152H113.97V722.849H233.667V603.152Z" fill="#030520" stroke="#0F122B" stroke-width="0.848912"/>
<path d="M233.667 723.697H113.97V843.394H233.667V723.697Z" fill="#030520" stroke="#0F122B" stroke-width="0.848912"/>
<path d="M233.667 844.243H113.97V963.94H233.667V844.243Z" fill="#030520" stroke="#0F122B" stroke-width="0.848912"/>
<path d="M233.667 964.788H113.97V1084.48H233.667V964.788Z" fill="#030520" stroke="#0F122B" stroke-width="0.848912"/>
<path d="M354.212 0.424438H234.515V120.121H354.212V0.424438Z" fill="#030520" stroke="#0F122B" stroke-width="0.848912"/>
<path d="M354.212 120.97H234.515V240.667H354.212V120.97Z" fill="#030520" stroke="#0F122B" stroke-width="0.848912"/>
<path d="M354.212 241.515H234.515V361.212H354.212V241.515Z" fill="#030520" stroke="#0F122B" stroke-width="0.848912"/>
<path d="M354.212 362.061H234.515V481.758H354.212V362.061Z" fill="#030520" stroke="#0F122B" stroke-width="0.848912"/>
<path d="M354.212 482.606H234.515V602.303H354.212V482.606Z" fill="#0F112E" stroke="#0F122B" stroke-width="0.848912"/>
<path d="M354.212 603.152H234.515V722.849H354.212V603.152Z" fill="#030520" stroke="#0F122B" stroke-width="0.848912"/>
<path d="M354.212 723.697H234.515V843.394H354.212V723.697Z" fill="#030520" stroke="#0F122B" stroke-width="0.848912"/>
<path d="M354.212 844.243H234.515V963.94H354.212V844.243Z" fill="#030520" stroke="#0F122B" stroke-width="0.848912"/>
<path d="M354.212 964.788H234.515V1084.48H354.212V964.788Z" fill="#030520" stroke="#0F122B" stroke-width="0.848912"/>
<path d="M474.758 0.424438H355.061V120.121H474.758V0.424438Z" fill="#030520" stroke="#0F122B" stroke-width="0.848912"/>
<path d="M474.758 120.97H355.061V240.667H474.758V120.97Z" fill="#030520" stroke="#0F122B" stroke-width="0.848912"/>
<path d="M474.758 241.515H355.061V361.212H474.758V241.515Z" fill="#030520" stroke="#0F122B" stroke-width="0.848912"/>
<path d="M474.758 362.061H355.061V481.758H474.758V362.061Z" fill="#030520" stroke="#0F122B" stroke-width="0.848912"/>
<path d="M474.758 482.606H355.061V602.303H474.758V482.606Z" fill="#030520" stroke="#0F122B" stroke-width="0.848912"/>
<path d="M474.758 603.152H355.061V722.849H474.758V603.152Z" fill="#030520" stroke="#0F122B" stroke-width="0.848912"/>
<path d="M474.758 723.697H355.061V843.394H474.758V723.697Z" fill="#030520" stroke="#0F122B" stroke-width="0.848912"/>
<path d="M474.758 844.243H355.061V963.94H474.758V844.243Z" fill="#030520" stroke="#0F122B" stroke-width="0.848912"/>
<path d="M474.758 964.788H355.061V1084.48H474.758V964.788Z" fill="#030520" stroke="#0F122B" stroke-width="0.848912"/>
<path d="M595.303 0.424438H475.606V120.121H595.303V0.424438Z" fill="#030520" stroke="#0F122B" stroke-width="0.848912"/>
<path d="M595.303 120.97H475.606V240.667H595.303V120.97Z" fill="#030520" stroke="#0F122B" stroke-width="0.848912"/>
<path d="M595.303 241.515H475.606V361.212H595.303V241.515Z" fill="#030520" stroke="#0F122B" stroke-width="0.848912"/>
<path d="M595.303 362.061H475.606V481.758H595.303V362.061Z" fill="#030520" stroke="#0F122B" stroke-width="0.848912"/>
<path d="M595.303 482.606H475.606V602.303H595.303V482.606Z" fill="#030520" stroke="#0F122B" stroke-width="0.848912"/>
<path d="M595.303 603.152H475.606V722.849H595.303V603.152Z" fill="#030520" stroke="#0F122B" stroke-width="0.848912"/>
<path d="M595.303 723.697H475.606V843.394H595.303V723.697Z" fill="#030520" stroke="#0F122B" stroke-width="0.848912"/>
<path d="M595.303 844.243H475.606V963.94H595.303V844.243Z" fill="#030520" stroke="#0F122B" stroke-width="0.848912"/>
<path d="M595.303 964.788H475.606V1084.48H595.303V964.788Z" fill="#030520" stroke="#0F122B" stroke-width="0.848912"/>
<path d="M715.849 0.424438H596.152V120.121H715.849V0.424438Z" fill="#030520" stroke="#0F122B" stroke-width="0.848912"/>
<path d="M715.849 120.97H596.152V240.667H715.849V120.97Z" fill="#030520" stroke="#0F122B" stroke-width="0.848912"/>
<path d="M715.849 241.515H596.152V361.212H715.849V241.515Z" fill="#030520" stroke="#0F122B" stroke-width="0.848912"/>
<path d="M715.849 362.061H596.152V481.758H715.849V362.061Z" fill="#030520" stroke="#0F122B" stroke-width="0.848912"/>
<path d="M715.849 482.606H596.152V602.303H715.849V482.606Z" fill="#030520" stroke="#0F122B" stroke-width="0.848912"/>
<path d="M715.849 603.152H596.152V722.849H715.849V603.152Z" fill="#030520" stroke="#0F122B" stroke-width="0.848912"/>
<path d="M836.394 0.424438H716.697V120.121H836.394V0.424438Z" fill="#030520" stroke="#0F122B" stroke-width="0.848912"/>
<path d="M836.394 120.97H716.697V240.667H836.394V120.97Z" fill="#030520" stroke="#0F122B" stroke-width="0.848912"/>
<path d="M836.394 241.515H716.697V361.212H836.394V241.515Z" fill="#030520" stroke="#0F122B" stroke-width="0.848912"/>
<path d="M836.394 362.061H716.697V481.758H836.394V362.061Z" fill="#030520" stroke="#0F122B" stroke-width="0.848912"/>
<path d="M836.394 482.606H716.697V602.303H836.394V482.606Z" fill="#030520" stroke="#0F122B" stroke-width="0.848912"/>
<path d="M836.394 603.152H716.697V722.849H836.394V603.152Z" fill="#030520" stroke="#0F122B" stroke-width="0.848912"/>
<path d="M956.94 0.424438H837.243V120.121H956.94V0.424438Z" fill="#030520" stroke="#0F122B" stroke-width="0.848912"/>
<path d="M956.94 120.97H837.243V240.667H956.94V120.97Z" fill="#030520" stroke="#0F122B" stroke-width="0.848912"/>
<path d="M956.94 241.515H837.243V361.212H956.94V241.515Z" fill="#030520" stroke="#0F122B" stroke-width="0.848912"/>
<path d="M956.94 362.061H837.243V481.758H956.94V362.061Z" fill="#030520" stroke="#0F122B" stroke-width="0.848912"/>
<path d="M956.94 482.606H837.243V602.303H956.94V482.606Z" fill="#030520" stroke="#0F122B" stroke-width="0.848912"/>
<path d="M956.94 603.152H837.243V722.849H956.94V603.152Z" fill="#030520" stroke="#0F122B" stroke-width="0.848912"/>
<path d="M1077.48 0.424438H957.788V120.121H1077.48V0.424438Z" fill="#030520" stroke="#0F122B" stroke-width="0.848912"/>
<path d="M1077.48 120.97H957.788V240.667H1077.48V120.97Z" fill="#030520" stroke="#0F122B" stroke-width="0.848912"/>
<path d="M1077.48 241.515H957.788V361.212H1077.48V241.515Z" fill="#030520" stroke="#0F122B" stroke-width="0.848912"/>
<path d="M1077.48 362.061H957.788V481.758H1077.48V362.061Z" fill="#030520" stroke="#0F122B" stroke-width="0.848912"/>
<path d="M1077.48 482.606H957.788V602.303H1077.48V482.606Z" fill="#030520" stroke="#0F122B" stroke-width="0.848912"/>
<path d="M1077.48 603.152H957.788V722.849H1077.48V603.152Z" fill="#030520" stroke="#0F122B" stroke-width="0.848912"/>
<path d="M1077.48 723.697H957.788V843.394H1077.48V723.697Z" fill="#030520" stroke="#0F122B" stroke-width="0.848912"/>
<path d="M1077.48 844.243H957.788V963.94H1077.48V844.243Z" fill="#030520" stroke="#0F122B" stroke-width="0.848912"/>
<path d="M1077.48 964.788H957.788V1084.48H1077.48V964.788Z" fill="#030520" stroke="#0F122B" stroke-width="0.848912"/>
<path d="M1198.03 0.424438H1078.33V120.121H1198.03V0.424438Z" fill="#030520" stroke="#0F122B" stroke-width="0.848912"/>
<path d="M1198.03 120.97H1078.33V240.667H1198.03V120.97Z" fill="#030520" stroke="#0F122B" stroke-width="0.848912"/>
<path d="M1198.03 241.515H1078.33V361.212H1198.03V241.515Z" fill="#030520" stroke="#0F122B" stroke-width="0.848912"/>
<path d="M1198.03 362.061H1078.33V481.758H1198.03V362.061Z" fill="#030520" stroke="#0F122B" stroke-width="0.848912"/>
<path d="M1198.03 482.606H1078.33V602.303H1198.03V482.606Z" fill="#030520" stroke="#0F122B" stroke-width="0.848912"/>
<path d="M1198.03 603.152H1078.33V722.849H1198.03V603.152Z" fill="#030520" stroke="#0F122B" stroke-width="0.848912"/>
<path d="M1198.03 723.697H1078.33V843.394H1198.03V723.697Z" fill="#030520" stroke="#0F122B" stroke-width="0.848912"/>
<path d="M1198.03 844.243H1078.33V963.94H1198.03V844.243Z" fill="#030520" stroke="#0F122B" stroke-width="0.848912"/>
<path d="M1198.03 964.788H1078.33V1084.48H1198.03V964.788Z" fill="#030520" stroke="#0F122B" stroke-width="0.848912"/>
<path d="M1318.58 0.424438H1198.88V120.121H1318.58V0.424438Z" fill="#030520" stroke="#0F122B" stroke-width="0.848912"/>
<path d="M1318.58 120.97H1198.88V240.667H1318.58V120.97Z" fill="#030520" stroke="#0F122B" stroke-width="0.848912"/>
<path d="M1318.58 241.515H1198.88V361.212H1318.58V241.515Z" fill="#0D112D" stroke="#0F122B" stroke-width="0.848912"/>
<path d="M1318.58 362.061H1198.88V481.758H1318.58V362.061Z" fill="#030520" stroke="#0F122B" stroke-width="0.848912"/>
<path d="M1318.58 482.606H1198.88V602.303H1318.58V482.606Z" fill="#0F112E" stroke="#0F122B" stroke-width="0.848912"/>
<path d="M1318.58 603.152H1198.88V722.849H1318.58V603.152Z" fill="#030520" stroke="#0F122B" stroke-width="0.848912"/>
<path d="M1318.58 723.697H1198.88V843.394H1318.58V723.697Z" fill="#030520" stroke="#0F122B" stroke-width="0.848912"/>
<path d="M1318.58 844.243H1198.88V963.94H1318.58V844.243Z" fill="#030520" stroke="#0F122B" stroke-width="0.848912"/>
<path d="M1318.58 964.788H1198.88V1084.48H1318.58V964.788Z" fill="#030520" stroke="#0F122B" stroke-width="0.848912"/>
<path d="M1439.12 0.424438H1319.42V120.121H1439.12V0.424438Z" fill="#030520" stroke="#0F122B" stroke-width="0.848912"/>
<path d="M1439.12 120.97H1319.42V240.667H1439.12V120.97Z" fill="#030520" stroke="#0F122B" stroke-width="0.848912"/>
<path d="M1439.12 241.515H1319.42V361.212H1439.12V241.515Z" fill="#030520" stroke="#0F122B" stroke-width="0.848912"/>
<path d="M1439.12 362.061H1319.42V481.758H1439.12V362.061Z" fill="#030520" stroke="#0F122B" stroke-width="0.848912"/>
<path d="M1439.12 482.606H1319.42V602.303H1439.12V482.606Z" fill="#030520" stroke="#0F122B" stroke-width="0.848912"/>
<path d="M1439.12 603.152H1319.42V722.849H1439.12V603.152Z" fill="#030520" stroke="#0F122B" stroke-width="0.848912"/>
<path d="M1439.12 723.697H1319.42V843.394H1439.12V723.697Z" fill="#030520" stroke="#0F122B" stroke-width="0.848912"/>
<path d="M1439.12 844.243H1319.42V963.94H1439.12V844.243Z" fill="#030520" stroke="#0F122B" stroke-width="0.848912"/>
<path d="M1439.12 964.788H1319.42V1084.48H1439.12V964.788Z" fill="#030520" stroke="#0F122B" stroke-width="0.848912"/>
<path d="M715.121 723.424H595.424V843.121H715.121V723.424Z" fill="#030520" stroke="#0F122B" stroke-width="0.848912"/>
<path d="M836.121 723.424H716.424V843.121H836.121V723.424Z" fill="#030520" stroke="#0F122B" stroke-width="0.848912"/>
<path d="M957.121 723.424H837.424V843.121H957.121V723.424Z" fill="#030520" stroke="#0F122B" stroke-width="0.848912"/>
<path d="M715.121 844.424H595.424V964.121H715.121V844.424Z" fill="#030520" stroke="#0F122B" stroke-width="0.848912"/>
<path d="M836.121 844.424H716.424V964.121H836.121V844.424Z" fill="#030520" stroke="#0F122B" stroke-width="0.848912"/>
<path d="M957.121 844.424H837.424V964.121H957.121V844.424Z" fill="#030520" stroke="#0F122B" stroke-width="0.848912"/>
<path d="M715.121 965.424H595.424V1085.12H715.121V965.424Z" fill="#030520" stroke="#0F122B" stroke-width="0.848912"/>
<path d="M836.121 965.424H716.424V1085.12H836.121V965.424Z" fill="#030520" stroke="#0F122B" stroke-width="0.848912"/>
<path d="M957.121 965.424H837.424V1085.12H957.121V965.424Z" fill="#030520" stroke="#0F122B" stroke-width="0.848912"/>
<g filter="url(#filter0_f_1_2)">
<path d="M713.263 520.963C892.348 520.963 1037.53 425.903 1037.53 308.641C1037.53 191.379 892.348 96.319 713.263 96.319C534.177 96.319 389 191.379 389 308.641C389 425.903 534.177 520.963 713.263 520.963Z" fill="#03051E"/>
</g>
</g>
<rect y="238" width="1440" height="779" fill="url(#paint0_linear_1_2)"/>
</g>
<defs>
<filter id="filter0_f_1_2" x="189" y="-103.681" width="1048.53" height="824.644" filterUnits="userSpaceOnUse" color-interpolation-filters="sRGB">
<feFlood flood-opacity="0" result="BackgroundImageFix"/>
<feBlend mode="normal" in="SourceGraphic" in2="BackgroundImageFix" result="shape"/>
<feGaussianBlur stdDeviation="100" result="effect1_foregroundBlur_1_2"/>
</filter>
<linearGradient id="paint0_linear_1_2" x1="720" y1="238" x2="720" y2="1017" gradientUnits="userSpaceOnUse">
<stop stop-color="#030520" stop-opacity="0"/>
<stop offset="1" stop-color="#030520"/>
</linearGradient>
<clipPath id="clip0_1_2">
<rect width="1440" height="1017" fill="white"/>
</clipPath>
</defs>
</svg>
