<svg width="48" height="48" viewBox="0 0 48 48" fill="none" xmlns="http://www.w3.org/2000/svg">
<g id="view_headline">
<path id="Vector" d="M8.84375 33.6842C8.84375 34.3818 9.40929 34.9474 10.1069 34.9474H37.8964C38.594 34.9474 39.1595 34.3818 39.1595 33.6842V32.4211C39.1595 31.7234 38.594 31.1579 37.8964 31.1579H10.1069C9.40929 31.1579 8.84375 31.7234 8.84375 32.4211V33.6842ZM8.84375 25.1053C8.84375 25.8029 9.40929 26.3684 10.1069 26.3684H37.8964C38.594 26.3684 39.1595 25.8029 39.1595 25.1053V23.8421C39.1595 23.1445 38.594 22.5789 37.8964 22.5789H10.1069C9.40929 22.5789 8.84375 23.1445 8.84375 23.8421V25.1053ZM10.1069 14C9.40929 14 8.84375 14.5655 8.84375 15.2632V16.5263C8.84375 17.2239 9.40929 17.7895 10.1069 17.7895H37.8964C38.594 17.7895 39.1595 17.2239 39.1595 16.5263V15.2632C39.1595 14.5655 38.594 14 37.8964 14H10.1069Z" fill="white" fill-opacity="0.44"/>
</g>
</svg>
