<svg xmlns="http://www.w3.org/2000/svg" width="166" height="194" viewBox="0 0 166 194" fill="none">
  <path d="M158.51 41.2793C136.536 61.5628 123.53 106.543 119.774 126.498L43.0068 97.6223C53.1485 74.5216 109.679 23.2026 136.677 0.430634L158.51 41.2793Z" fill="url(#paint0_linear_44_155)" fill-opacity="0.32"/>
  <path d="M158.51 41.2793C136.536 61.5628 123.53 106.543 119.774 126.498L72.5868 106.778C82.7286 83.6774 117.426 37.9926 144.424 15.2207L158.51 41.2793Z" fill="url(#paint1_linear_44_155)" fill-opacity="0.32"/>
  <g filter="url(#filter0_d_44_155)">
    <circle cx="41.7587" cy="41.7587" r="41.7587" transform="matrix(1 0 0 -1 41.002 148.518)" fill="white"/>
  </g>
  <path d="M83.5044 92.5518C83.4857 92.5484 83.4743 92.549 83.4709 92.5529" stroke="#93A6F2" stroke-width="0.283559"/>
  <path d="M83.4688 92.5536H70.6512C70.6315 92.5536 70.6227 92.564 70.6245 92.5832L71.0847 97.6516C71.0864 97.6702 71.0969 97.6795 71.116 97.6795L83.4914 97.6806" stroke="#899CE8" stroke-width="0.283559"/>
  <path d="M83.495 97.6803V102.937" stroke="#2859EB" stroke-width="0.283559"/>
  <path d="M83.4922 102.937L83.4469 102.939" stroke="#93A6F2" stroke-width="0.283559"/>
  <path d="M83.4507 102.939H71.5808C71.5605 102.939 71.5512 102.949 71.5529 102.969L72.0073 108.039C72.0085 108.054 72.0213 108.065 72.0364 108.065H83.4751" stroke="#899CE8" stroke-width="0.283559"/>
  <path d="M83.4709 108.066C83.4776 108.066 83.4837 108.067 83.4904 108.067" stroke="#93A6F2" stroke-width="0.283559"/>
  <path d="M83.4869 108.066L83.5026 116.255" stroke="#2859EB" stroke-width="0.283559"/>
  <path d="M83.5055 116.257C83.497 116.254 83.4857 116.257 83.4709 116.266" stroke="#93A6F2" stroke-width="0.283559"/>
  <path d="M83.4728 116.264L77.7827 114.729C77.7653 114.724 77.7525 114.709 77.7508 114.691L77.3917 110.663C77.3899 110.643 77.3783 110.633 77.358 110.633H72.2728C72.2495 110.633 72.2391 110.645 72.2414 110.668L72.9549 118.669C72.9555 118.679 72.9625 118.687 72.9718 118.69L83.4722 121.604" stroke="#899CE8" stroke-width="0.283559"/>
  <path d="M83.4709 121.604C83.4855 121.656 83.4924 121.71 83.4919 121.766C83.4855 123.468 83.4861 125.174 83.493 126.886C83.493 126.912 83.5052 126.921 83.5302 126.914L97.0218 123.174C97.0392 123.169 97.052 123.154 97.0532 123.136L100.24 87.4395C100.241 87.4302 100.234 87.4221 100.224 87.4209C100.224 87.4209 100.223 87.4209 100.223 87.4209L83.5337 87.4226C83.5093 87.4226 83.4895 87.4424 83.4895 87.4662L83.5052 92.552" stroke="#2859EB" stroke-width="0.283559"/>
  <path d="M83.4709 121.604L93.9603 118.695C93.9783 118.69 93.9911 118.675 93.9929 118.656L96.3228 92.5818C96.3245 92.5615 96.3153 92.5516 96.2949 92.5516H83.5052" stroke="#94B2F8" stroke-width="0.283559"/>
  <path d="M83.4709 121.605V116.266" stroke="#F5F5F5" stroke-width="0.283559"/>
  <path d="M83.5026 116.256L89.1619 114.729C89.1787 114.725 89.1909 114.71 89.1927 114.692L89.783 108.096C89.7847 108.077 89.7755 108.068 89.7563 108.068H83.4869" stroke="#94B2F8" stroke-width="0.283559"/>
  <path d="M83.4713 108.065L83.4469 102.939" stroke="#F5F5F5" stroke-width="0.283559"/>
  <path d="M83.495 102.937H90.21C90.2274 102.937 90.2367 102.928 90.2385 102.911L90.7004 97.7143C90.7021 97.6916 90.6917 97.6806 90.669 97.6806L83.5177 97.6742" stroke="#94B2F8" stroke-width="0.283559"/>
  <path d="M83.4709 92.5536C83.4739 94.2514 83.4756 95.9462 83.475 97.6376C83.475 97.658 83.489 97.6702 83.5163 97.6742" stroke="#F5F5F5" stroke-width="0.283559"/>
  <path d="M83.5171 97.6735C83.5239 97.6707 83.5171 97.6724 83.495 97.6798" stroke="#8AA8EE" stroke-width="0.283559"/>
  <path d="M63.002 84H103.983L100.252 125.797C100.25 125.817 100.239 125.831 100.219 125.836L83.481 130.483H83.4351V130.476C83.4351 130.472 83.4328 130.469 83.4287 130.468C77.8746 128.928 72.3188 127.386 66.7607 125.841C66.7415 125.835 66.7304 125.823 66.7287 125.802L63.002 84ZM83.5089 92.5545C83.4897 92.5511 83.4781 92.5516 83.4746 92.5557H70.6571C70.6373 92.5557 70.6286 92.5662 70.6303 92.5853L71.0905 97.6537C71.0922 97.6723 71.1027 97.6816 71.1219 97.6816L83.4973 97.6827V102.939L83.452 102.941H71.5821C71.5617 102.941 71.5524 102.951 71.5542 102.971L72.0085 108.041C72.0097 108.056 72.0225 108.068 72.0376 108.068H83.4764C83.4828 108.068 83.4886 108.069 83.495 108.069L83.5107 116.258C83.5019 116.255 83.4903 116.258 83.4752 116.268L77.7852 114.732C77.7677 114.727 77.7549 114.712 77.7532 114.694L77.3941 110.666C77.3924 110.646 77.3808 110.636 77.3604 110.636H72.2752C72.252 110.636 72.2415 110.648 72.2439 110.671L72.9574 118.673C72.9579 118.682 72.9649 118.69 72.9742 118.693L83.4746 121.607C83.4892 121.658 83.4961 121.712 83.4956 121.769C83.4892 123.47 83.4897 125.177 83.4967 126.888C83.4967 126.914 83.5089 126.924 83.5339 126.917L97.0255 123.176C97.0429 123.171 97.0557 123.156 97.0568 123.138L100.244 87.442C100.245 87.4327 100.238 87.4246 100.228 87.4234C100.228 87.4234 100.227 87.4234 100.226 87.4234L83.5374 87.4252C83.513 87.4252 83.4932 87.4449 83.4932 87.4688L83.5089 92.5545Z" fill="#0D18A0"/>
  <path d="M83.4686 121.605L93.958 118.696C93.976 118.691 93.9888 118.676 93.9905 118.657L96.3205 92.5831C96.3222 92.5627 96.3129 92.5529 96.2926 92.5529H83.5029L83.4872 87.4671C83.4872 87.4433 83.507 87.4235 83.5314 87.4235L100.22 87.4218C100.23 87.4218 100.238 87.4293 100.238 87.4386C100.238 87.4392 100.238 87.4398 100.238 87.4403L97.0508 123.137C97.0497 123.155 97.0369 123.17 97.0195 123.174L83.5279 126.915C83.5029 126.922 83.4907 126.913 83.4907 126.887C83.4837 125.175 83.4832 123.468 83.4895 121.767C83.4895 121.711 83.4832 121.657 83.4686 121.605Z" fill="#535BBA"/>
  <path d="M83.4744 92.5565C83.4773 94.2543 83.4791 95.9492 83.4785 97.6406C83.4785 97.6609 83.4924 97.6731 83.5197 97.6772C83.5267 97.6743 83.5197 97.676 83.4971 97.6835L71.1217 97.6824C71.1025 97.6824 71.092 97.6731 71.0903 97.6545L70.6301 92.5862C70.6284 92.567 70.6371 92.5571 70.6568 92.5571H83.4744V92.5565Z" fill="#EBEBEB"/>
  <path d="M83.4753 92.5559C83.4788 92.5519 83.4904 92.5513 83.5096 92.5548H96.2993C96.3196 92.5548 96.3289 92.5647 96.3272 92.585L93.9972 118.659C93.9955 118.678 93.9827 118.693 93.9647 118.698L83.4753 121.607V116.268C83.491 116.259 83.5026 116.256 83.5113 116.259L89.1706 114.732C89.1874 114.727 89.1996 114.712 89.2014 114.694L89.7917 108.099C89.7934 108.079 89.7841 108.07 89.765 108.07H83.4956C83.4892 108.069 83.4834 108.068 83.477 108.068L83.4526 102.941L83.498 102.94H90.213C90.2304 102.94 90.2397 102.931 90.2414 102.913L90.7033 97.7167C90.7051 97.694 90.6946 97.683 90.672 97.683L83.5206 97.6766C83.4933 97.6725 83.4794 97.6603 83.4794 97.64C83.4794 95.9486 83.4782 94.2537 83.4753 92.5559Z" fill="white"/>
  <path d="M83.5153 97.6765L90.6667 97.6829C90.6893 97.6829 90.6998 97.6939 90.6981 97.7166L90.2361 102.913C90.2344 102.931 90.2251 102.939 90.2077 102.939H83.4927V97.6829C83.5148 97.6753 83.5223 97.6736 83.5153 97.6765Z" fill="#535BBA"/>
  <path d="M83.4565 102.94L83.4809 108.066H72.0421C72.027 108.066 72.0142 108.055 72.013 108.04L71.5587 102.97C71.5569 102.95 71.5662 102.94 71.5866 102.94H83.4565Z" fill="#EBEBEB"/>
  <path d="M83.4927 108.071H89.762C89.7812 108.071 89.7905 108.08 89.7887 108.1L89.1984 114.695C89.1967 114.714 89.1845 114.728 89.1676 114.733L83.5084 116.26L83.4927 108.071Z" fill="#535BBA"/>
  <path d="M83.4785 116.267V121.606L72.9775 118.692C72.9682 118.69 72.9612 118.681 72.9607 118.672L72.2471 110.671C72.2448 110.647 72.2553 110.636 72.2785 110.636H77.3637C77.3841 110.636 77.3957 110.646 77.3974 110.666L77.7565 114.694C77.7582 114.712 77.771 114.727 77.7885 114.732L83.4785 116.267Z" fill="#EBEBEB"/>
  <g filter="url(#filter1_f_44_155)">
    <circle cx="124.631" cy="68.5431" r="1.35534" transform="rotate(-180 124.631 68.5431)" fill="white"/>
  </g>
  <g filter="url(#filter2_f_44_155)">
    <circle cx="91.4182" cy="52.9551" r="0.677668" transform="rotate(-180 91.4182 52.9551)" fill="white"/>
  </g>
  <g filter="url(#filter3_f_44_155)">
    <circle cx="133.434" cy="39.4024" r="0.677668" transform="rotate(-180 133.434 39.4024)" fill="white"/>
  </g>
  <defs>
    <filter id="filter0_d_44_155" x="0.081974" y="28.6089" width="165.357" height="165.357" filterUnits="userSpaceOnUse" color-interpolation-filters="sRGB">
      <feFlood flood-opacity="0" result="BackgroundImageFix"/>
      <feColorMatrix in="SourceAlpha" type="matrix" values="0 0 0 0 0 0 0 0 0 0 0 0 0 0 0 0 0 0 127 0" result="hardAlpha"/>
      <feOffset dy="4.52875"/>
      <feGaussianBlur stdDeviation="20.46"/>
      <feComposite in2="hardAlpha" operator="out"/>
      <feColorMatrix type="matrix" values="0 0 0 0 0.238875 0 0 0 0 0.23982 0 0 0 0 0.2625 0 0 0 0.15 0"/>
      <feBlend mode="normal" in2="BackgroundImageFix" result="effect1_dropShadow_44_155"/>
      <feBlend mode="normal" in="SourceGraphic" in2="effect1_dropShadow_44_155" result="shape"/>
    </filter>
    <filter id="filter1_f_44_155" x="122.734" y="66.6456" width="3.79496" height="3.79496" filterUnits="userSpaceOnUse" color-interpolation-filters="sRGB">
      <feFlood flood-opacity="0" result="BackgroundImageFix"/>
      <feBlend mode="normal" in="SourceGraphic" in2="BackgroundImageFix" result="shape"/>
      <feGaussianBlur stdDeviation="0.271067" result="effect1_foregroundBlur_44_155"/>
    </filter>
    <filter id="filter2_f_44_155" x="90.1983" y="51.7353" width="2.43962" height="2.43962" filterUnits="userSpaceOnUse" color-interpolation-filters="sRGB">
      <feFlood flood-opacity="0" result="BackgroundImageFix"/>
      <feBlend mode="normal" in="SourceGraphic" in2="BackgroundImageFix" result="shape"/>
      <feGaussianBlur stdDeviation="0.271067" result="effect1_foregroundBlur_44_155"/>
    </filter>
    <filter id="filter3_f_44_155" x="132.214" y="38.1826" width="2.43962" height="2.43962" filterUnits="userSpaceOnUse" color-interpolation-filters="sRGB">
      <feFlood flood-opacity="0" result="BackgroundImageFix"/>
      <feBlend mode="normal" in="SourceGraphic" in2="BackgroundImageFix" result="shape"/>
      <feGaussianBlur stdDeviation="0.271067" result="effect1_foregroundBlur_44_155"/>
    </filter>
    <linearGradient id="paint0_linear_44_155" x1="76.1083" y1="117.342" x2="132.451" y2="30.0107" gradientUnits="userSpaceOnUse">
      <stop stop-color="#D9D9D9"/>
      <stop offset="1" stop-color="#D9D9D9" stop-opacity="0"/>
    </linearGradient>
    <linearGradient id="paint1_linear_44_155" x1="97.2111" y1="118.416" x2="152.495" y2="52.8631" gradientUnits="userSpaceOnUse">
      <stop stop-color="#D9D9D9"/>
      <stop offset="1" stop-color="#D9D9D9" stop-opacity="0"/>
    </linearGradient>
  </defs>
</svg>