<svg width="157" height="160" viewBox="0 0 157 160" fill="none" xmlns="http://www.w3.org/2000/svg">
<ellipse cx="78.3861" cy="80.1334" rx="77.8779" ry="79.3404" fill="url(#paint0_linear_404_56)"/>
<defs>
<linearGradient id="paint0_linear_404_56" x1="78.3861" y1="0.792969" x2="78.3861" y2="159.474" gradientUnits="userSpaceOnUse">
<stop stop-color="#457DEB"/>
<stop offset="1" stop-color="#457DEB" stop-opacity="0"/>
</linearGradient>
</defs>
<g transform="translate(50, 47)">
    <svg xmlns="http://www.w3.org/2000/svg" width="54" height="53" viewBox="0 0 54 53" fill="none">
  <g filter="url(#filter0_d_1202_266)">
    <path d="M36.4636 27.1744C36.4636 30.2493 34.9566 33.1446 32.4328 34.9201L30.6467 36.1759L30.6467 49.8907C30.6467 51.0515 31.5877 51.9933 32.7485 51.9933C33.9092 51.9933 34.8511 51.0523 34.8511 49.8907V38.3595C38.4929 35.7983 40.667 31.6167 40.667 27.1753C40.667 19.639 34.5354 13.5075 26.9988 13.5075C19.4622 13.5075 13.3306 19.639 13.3306 27.1753C13.3306 30.3828 14.4686 33.4498 16.4701 35.8741C17.6875 34.9628 19.1683 34.3934 20.7791 34.2992C18.7332 32.5097 17.5349 29.9145 17.5349 27.1753C17.5349 21.9569 21.7802 17.7117 26.9988 17.7117C32.2174 17.7117 36.4627 21.9569 36.4627 27.1753L36.4636 27.1744Z" fill="url(#paint0_linear_1202_266)"/>
    <path d="M14.0377 38.8352C11.1058 35.537 9.40519 31.1235 9.68251 26.315C10.1779 17.7069 17.07 10.6842 25.6679 10.038C35.8321 9.27492 44.3471 17.3293 44.3471 27.3344C44.3471 33.1973 41.4204 38.3869 36.9536 41.5281V46.8494C38.0716 46.0733 39.6161 45.9302 40.9277 46.7761L41.8146 47.3481C42.5244 47.8058 43.4503 47.774 44.092 47.2248C44.6604 46.7384 45.2062 46.2289 45.7284 45.6976C46.3219 45.0939 46.4156 44.1696 46.0042 43.4297L45.4896 42.5039C44.1291 40.0578 45.9875 37.0692 48.7835 37.2079L49.8286 37.2594C50.6751 37.3012 51.4632 36.8073 51.7432 36.0074C51.8658 35.6571 51.9814 35.3032 52.0895 34.9458C52.198 34.5886 52.2984 34.2302 52.391 33.8709C52.6025 33.0501 52.2217 32.2014 51.4946 31.7657L50.5974 31.2282C48.1965 29.7893 48.3117 26.2731 50.8015 24.9947L51.7433 24.5112C52.4966 24.1246 52.9323 23.3039 52.7743 22.472C52.6353 21.7403 52.4646 21.0136 52.2624 20.2935C52.0341 19.4803 51.2819 18.9395 50.4374 18.9258L49.3817 18.9086C46.5832 18.8632 44.9245 15.7596 46.4419 13.4076L47.0138 12.5209C47.4716 11.811 47.4398 10.885 46.8905 10.2433C46.404 9.675 45.8946 9.1292 45.3633 8.60701C44.7596 8.01358 43.8353 7.91985 43.0954 8.33117L42.1695 8.84587C39.7233 10.2063 36.7347 8.34792 36.8733 5.55209L36.9249 4.50704C36.9666 3.66055 36.4727 2.8724 35.6728 2.59244C35.3224 2.46982 34.9686 2.35426 34.6111 2.24612C34.2539 2.13764 33.8955 2.03725 33.5361 1.94465C32.7154 1.73313 31.8667 2.11393 31.431 2.841L30.8934 3.73821C29.4545 6.13899 25.9382 6.02388 24.6597 3.53415L24.1756 2.59166C23.7888 1.83871 22.9683 1.40332 22.1367 1.56126C21.4048 1.70026 20.6778 1.87098 19.9575 2.07325C19.1444 2.3016 18.6035 3.05378 18.5898 3.89827L18.5726 4.95386C18.5272 7.7523 15.4235 9.41097 13.0714 7.89358L12.1846 7.32165C11.4747 6.8639 10.5488 6.89572 9.90714 7.44492C9.33878 7.93137 8.79296 8.44083 8.27075 8.97208C7.67726 9.57583 7.58353 10.5001 7.99489 11.24L8.50955 12.1658C9.87001 14.6119 8.01159 17.6005 5.21567 17.4627L4.1705 17.4111C3.32402 17.3694 2.5359 17.8633 2.25592 18.6632C2.1333 19.0135 2.01773 19.3674 1.90959 19.7248C1.80114 20.0819 1.70078 20.4402 1.60821 20.7994C1.39662 21.6204 1.77759 22.4692 2.50489 22.9048L3.4026 23.4424C5.80346 24.8813 5.68835 28.3975 3.19853 29.6759L2.25665 30.1593C1.50335 30.546 1.06767 31.3667 1.22569 32.1985C1.36468 32.9303 1.53536 33.657 1.73759 34.3771C1.96594 35.1902 2.71812 35.7311 3.5626 35.7448L4.61829 35.762C7.41682 35.8074 9.07554 38.911 7.5581 41.263L6.98621 42.1497C6.52841 42.8596 6.56024 43.7856 7.10949 44.4273C7.59596 44.9956 8.10543 45.5414 8.6367 46.0636C9.24044 46.657 10.1646 46.7507 10.9046 46.3394L11.8305 45.8247C12.5002 45.4524 13.2084 45.325 13.8834 45.3887C13.477 44.4312 13.2511 43.3777 13.2511 42.2737C13.2511 41.0423 13.538 39.8781 14.0377 38.8352Z" fill="url(#paint1_linear_1202_266)"/>
    <path d="M26.8424 41.1541C26.2244 38.0645 23.2188 36.0608 20.1291 36.6788C17.0394 37.2967 15.0356 40.3022 15.6536 43.3919C16.2715 46.4815 19.2772 48.4852 22.3669 47.8672C25.4566 47.2493 27.4603 44.2438 26.8424 41.1541Z" fill="url(#paint2_linear_1202_266)"/>
  </g>
  <defs>
    <filter id="filter0_d_1202_266" x="0.4957" y="0.831393" width="53.0086" height="51.8596" filterUnits="userSpaceOnUse" color-interpolation-filters="sRGB">
      <feFlood flood-opacity="0" result="BackgroundImageFix"/>
      <feColorMatrix in="SourceAlpha" type="matrix" values="0 0 0 0 0 0 0 0 0 0 0 0 0 0 0 0 0 0 127 0" result="hardAlpha"/>
      <feOffset/>
      <feGaussianBlur stdDeviation="0.34883"/>
      <feColorMatrix type="matrix" values="0 0 0 0 0.34902 0 0 0 0 0.192157 0 0 0 0 1 0 0 0 0.3 0"/>
      <feBlend mode="normal" in2="BackgroundImageFix" result="effect1_dropShadow_1202_266"/>
      <feBlend mode="normal" in="SourceGraphic" in2="effect1_dropShadow_1202_266" result="shape"/>
    </filter>
    <linearGradient id="paint0_linear_1202_266" x1="30.153" y1="13.5078" x2="23.6431" y2="56.3016" gradientUnits="userSpaceOnUse">
      <stop stop-color="white"/>
      <stop offset="1" stop-color="#ADADAD"/>
    </linearGradient>
    <linearGradient id="paint1_linear_1202_266" x1="33" y1="1.33601" x2="27.8761" y2="54.0531" gradientUnits="userSpaceOnUse">
      <stop stop-color="white"/>
      <stop offset="1" stop-color="#ADADAD"/>
    </linearGradient>
    <linearGradient id="paint2_linear_1202_266" x1="21.4201" y1="36.4206" x2="22.577" y2="49.2744" gradientUnits="userSpaceOnUse">
      <stop stop-color="white"/>
      <stop offset="1" stop-color="#ADADAD"/>
    </linearGradient>
  </defs>
</svg>
  </g>
</svg>
