<svg width="24" height="24" viewBox="0 0 25 24" fill="none" xmlns="http://www.w3.org/2000/svg">
<g id="behance logo">
<g clip-path="url(#clip0_1039_250)">
<path id="Vector" d="M0.519775 0H24.0398V23.52H0.519775" fill="#4175FA"/>
<path id="Vector_2" d="M16.6533 9.79262C13.2814 9.79262 13.2768 13.1507 13.2768 13.169C13.2768 13.169 13.0472 16.5317 16.6533 16.5317C16.6533 16.5317 19.6622 16.7016 19.6622 14.1934H18.1187C18.1187 14.1934 18.1692 15.1397 16.7084 15.1397C16.7084 15.1397 15.1649 15.2408 15.1649 13.6146H19.7173C19.7173 13.6146 20.218 9.79722 16.6579 9.79722L16.6533 9.79262ZM15.1419 12.434C15.1419 12.434 15.3303 11.0835 16.6854 11.0835C18.0452 11.0835 18.0222 12.434 18.0222 12.434H15.1373H15.1419ZM11.2832 11.5704C11.2832 11.5704 12.6199 11.4739 12.6199 9.89828C12.6199 8.32721 11.5266 7.56006 10.1347 7.56006H5.55933V16.3525H10.1301C10.1301 16.3525 12.9231 16.4398 12.9231 13.757C12.9231 13.757 13.0426 11.575 11.2786 11.575L11.2832 11.5704ZM7.58058 9.11734H10.1393C10.1393 9.11734 10.7595 9.11734 10.7595 10.0315C10.7595 10.9457 10.3966 11.0789 9.98312 11.0789H7.58518V9.11734H7.58058ZM10.0107 14.786H7.58058V12.434H10.1393C10.1393 12.434 11.0672 12.4248 11.0627 13.6468C11.0627 14.6758 10.3736 14.7814 10.0107 14.7906V14.786ZM14.7652 8.07456V9.15868H18.3943V8.07456H14.7652Z" fill="white"/>
</g>
</g>
<defs>
<clipPath id="clip0_1039_250">
<rect x="0.519287" width="23.5201" height="23.52" rx="11.76" fill="white"/>
</clipPath>
</defs>
</svg>
