<svg width="37" height="36" viewBox="0 0 37 36" fill="none" xmlns="http://www.w3.org/2000/svg">
<path d="M18.2128 0C8.26777 0 0.212769 8.25874 0.212769 18.4553C0.212769 26.6218 5.36527 33.5194 12.5203 35.9647C13.4203 36.1262 13.7578 35.5726 13.7578 35.0881C13.7578 34.6498 13.7353 33.1964 13.7353 31.6508C9.21277 32.5044 8.04277 30.5204 7.68277 29.4823C7.48027 28.9517 6.60277 27.3138 5.83777 26.8755C5.20777 26.5295 4.30777 25.6759 5.81527 25.6528C7.23277 25.6298 8.24527 26.9909 8.58277 27.5445C10.2028 30.3359 12.7903 29.5515 13.8253 29.0671C13.9828 27.8675 14.4553 27.0601 14.9728 26.5987C10.9678 26.1373 6.78277 24.5455 6.78277 17.4864C6.78277 15.4794 7.48027 13.8184 8.62777 12.5265C8.44777 12.0651 7.81777 10.1735 8.80777 7.63588C8.80777 7.63588 10.3153 7.15142 13.7578 9.52754C15.1978 9.1123 16.7278 8.90468 18.2578 8.90468C19.7878 8.90468 21.3178 9.1123 22.7578 9.52754C26.2003 7.12836 27.7078 7.63588 27.7078 7.63588C28.6978 10.1735 28.0678 12.0651 27.8878 12.5265C29.0353 13.8184 29.7328 15.4563 29.7328 17.4864C29.7328 24.5686 25.5253 26.1373 21.5203 26.5987C22.1728 27.1754 22.7353 28.2827 22.7353 30.0129C22.7353 32.4813 22.7128 34.4653 22.7128 35.0881C22.7128 35.5726 23.0503 36.1493 23.9503 35.9647C27.5238 34.7282 30.629 32.3737 32.8288 29.2326C35.0286 26.0916 36.2121 22.3222 36.2128 18.4553C36.2128 8.25874 28.1578 0 18.2128 0Z" fill="#F8F8F8"/>
</svg>
