<?xml version="1.0" encoding="UTF-8"?>
<svg version="1.1" xmlns="http://www.w3.org/2000/svg" width="512" height="512">
<path d="M0 0 C1.01790619 0.00215515 2.03581238 0.0043103 3.08456421 0.00653076 C17.69363523 0.05620146 32.02575853 0.30709809 46.375 3.3125 C47.34985352 3.51117676 48.32470703 3.70985352 49.32910156 3.91455078 C97.7109774 14.03517194 141.69928269 35.9516877 177.375 70.3125 C178.3640332 71.26068604 178.3640332 71.26068604 179.37304688 72.22802734 C188.86130305 81.37247479 197.6012044 90.66984009 205.375 101.3125 C206.23306152 102.46355017 207.09113451 103.61459177 207.94921875 104.765625 C213.98736829 112.95680614 219.34595521 121.47054105 224.375 130.3125 C224.73948242 130.94430176 225.10396484 131.57610352 225.47949219 132.22705078 C247.08534998 169.97532572 256.85198095 212.74189997 256.6875 255.9375 C256.68534485 256.95540619 256.6831897 257.97331238 256.68096924 259.02206421 C256.63129854 273.63113523 256.38040191 287.96325853 253.375 302.3125 C253.07698486 303.77478027 253.07698486 303.77478027 252.77294922 305.26660156 C242.65232806 353.6484774 220.7358123 397.63678269 186.375 433.3125 C185.74287598 433.97185547 185.11075195 434.63121094 184.45947266 435.31054688 C175.31502521 444.79880305 166.01765991 453.5387044 155.375 461.3125 C154.22394983 462.17056152 153.07290823 463.02863451 151.921875 463.88671875 C143.73224019 469.92427396 135.22961724 475.30707302 126.375 480.3125 C125.66778809 480.7146875 124.96057617 481.116875 124.23193359 481.53125 C101.09654164 494.5566741 75.92537591 503.30551461 49.9375 508.625 C49.21860596 508.77235596 48.49971191 508.91971191 47.7590332 509.0715332 C33.08339502 511.86090125 18.55831162 512.66142619 3.64770508 512.62817383 C0.70811513 512.6250221 -2.2304558 512.64854926 -5.16992188 512.67382812 C-18.54306192 512.71848737 -31.43916711 511.51301542 -44.625 509.3125 C-46.33055054 509.03031616 -46.33055054 509.03031616 -48.07055664 508.74243164 C-91.33802759 500.97044532 -132.38793216 480.98345309 -165.625 452.3125 C-166.37007813 451.67828125 -167.11515625 451.0440625 -167.8828125 450.390625 C-181.38779833 438.57948485 -194.05918743 425.82889772 -204.625 411.3125 C-205.48149066 410.16255169 -206.33826433 409.01281411 -207.1953125 407.86328125 C-213.23534209 399.67315742 -218.61867614 391.16870382 -223.625 382.3125 C-224.0271875 381.60528809 -224.429375 380.89807617 -224.84375 380.16943359 C-237.8691741 357.03404164 -246.61801461 331.86287591 -251.9375 305.875 C-252.08485596 305.15610596 -252.23221191 304.43721191 -252.3840332 303.6965332 C-255.35789088 288.05024391 -255.99800362 272.57681954 -255.9375 256.6875 C-255.93534485 255.66959381 -255.9331897 254.65168762 -255.93096924 253.60293579 C-255.88129854 238.99386477 -255.63040191 224.66174147 -252.625 210.3125 C-252.42632324 209.33764648 -252.22764648 208.36279297 -252.02294922 207.35839844 C-241.90232806 158.9765226 -219.9858123 114.98821731 -185.625 79.3125 C-184.99287598 78.65314453 -184.36075195 77.99378906 -183.70947266 77.31445312 C-174.56502521 67.82619695 -165.26765991 59.0862956 -154.625 51.3125 C-153.47394983 50.45443848 -152.32290823 49.59636549 -151.171875 48.73828125 C-142.98224019 42.70072604 -134.47961724 37.31792698 -125.625 32.3125 C-124.91778809 31.9103125 -124.21057617 31.508125 -123.48193359 31.09375 C-100.34654164 18.0683259 -75.17537591 9.31948539 -49.1875 4 C-48.46860596 3.85264404 -47.74971191 3.70528809 -47.0090332 3.5534668 C-31.36274391 0.57960912 -15.88931954 -0.06050362 0 0 Z " fill="#000000" transform="translate(255.625,-0.3125)"/>
<path d="M0 0 C0.65806641 0.22461914 1.31613281 0.44923828 1.99414062 0.68066406 C18.22973874 6.24091127 30.89265721 15.01102509 43 27 C44.01320312 27.92232422 44.01320312 27.92232422 45.046875 28.86328125 C58.40474604 41.21012077 67.20340506 59.73952578 72 77 C72.3196875 78.12148437 72.639375 79.24296875 72.96875 80.3984375 C79.93867533 109.11711133 73.38081803 139.44812022 58.30859375 164.421875 C54.98690291 169.68644161 51.21001227 174.4183173 47 179 C46.55285645 179.48952148 46.10571289 179.97904297 45.64501953 180.48339844 C27.30333074 200.34254243 1.69897134 213.72926887 -25.52416992 215.18896484 C-29.10174925 215.26613458 -32.67172818 215.27333656 -36.25 215.25 C-37.45140625 215.25773438 -38.6528125 215.26546875 -39.890625 215.2734375 C-46.56137815 215.25880866 -52.5698183 214.75550983 -59 213 C-60.00546875 212.78859375 -61.0109375 212.5771875 -62.046875 212.359375 C-69.91334438 210.58600907 -76.8140671 207.6197131 -84 204 C-84.91523437 203.55914062 -85.83046875 203.11828125 -86.7734375 202.6640625 C-109.52493547 191.12151368 -125.01493995 171.50659977 -136 149 C-136.40992188 148.16339844 -136.81984375 147.32679688 -137.2421875 146.46484375 C-148.21538111 121.66882874 -147.21322874 89.63968888 -137.5625 64.59375 C-131.98897771 51.77464873 -125.21901329 40.5226068 -116 30 C-115.28328125 29.18144531 -114.5665625 28.36289063 -113.828125 27.51953125 C-99.98525661 12.8179887 -82.30107932 3.31174117 -63 -2 C-62.03320312 -2.34289062 -61.06640625 -2.68578125 -60.0703125 -3.0390625 C-41.99427886 -8.69644708 -17.53660515 -6.41645465 0 0 Z " fill="#FEFEFE" transform="translate(206,151)"/>
<path d="M0 0 C2.97532348 2.08169334 5.48105062 4.39108815 8 7 C8.98226562 7.96873047 8.98226562 7.96873047 9.984375 8.95703125 C34.89057104 34.97338719 37.81429667 74.60043519 37.11376953 108.54736328 C36.87531048 115.78403274 36.12049686 122.85151371 35 130 C34.72542969 131.9490625 34.72542969 131.9490625 34.4453125 133.9375 C31.31249013 153.43061698 24.11286754 173.00572103 11 188 C10.40703125 188.69867188 9.8140625 189.39734375 9.203125 190.1171875 C2.44246604 197.52038843 -6.31951895 202.21258934 -16.32421875 203.23828125 C-26.98402459 203.57305201 -34.38865307 199.48885875 -42.3359375 192.59375 C-65.00716478 170.52088356 -71.87822833 135.20059945 -72.31498718 104.80186462 C-72.34211736 102.13874592 -72.35984289 99.47571176 -72.375 96.8125 C-72.38312714 95.9677713 -72.39125427 95.1230426 -72.39962769 94.25271606 C-72.5104649 78.85419402 -70.96322901 63.82739484 -66.375 49.0625 C-65.99649902 47.83454712 -65.99649902 47.83454712 -65.61035156 46.58178711 C-59.39806036 27.28933579 -49.86865824 7.95482161 -31.5703125 -2.37109375 C-20.69198401 -7.39319748 -10.23672873 -5.7436191 0 0 Z " fill="#FEFEFE" transform="translate(364,157)"/>
<path d="M0 0 C4.62070087 1.88600035 6.04864913 4.80047814 8.0625 9.25 C17.17449666 33.65713391 18.56995996 60.12487149 18.39868164 85.89477539 C18.37504234 89.68071878 18.3781583 93.46595408 18.38476562 97.25195312 C18.30839111 165.21590032 18.30839111 165.21590032 3.0625 185.25 C0.125 186.5 0.125 186.5 -2.9375 186.25 C-17.41160325 173.49900428 -18.20562787 143.76688219 -19.4296875 126.11328125 C-25.4623688 29.5673207 -25.4623688 29.5673207 -5.0625 1.6875 C-2.9375 0.25 -2.9375 0.25 0 0 Z " fill="#FCFCFC" transform="translate(431.9375,162.75)"/>
</svg>
